<?xml version="1.0" encoding="UTF-8" standalone="no"?>
<svg
   xmlns:dc="http://purl.org/dc/elements/1.1/"
   xmlns:cc="http://creativecommons.org/ns#"
   xmlns:rdf="http://www.w3.org/1999/02/22-rdf-syntax-ns#"
   xmlns:svg="http://www.w3.org/2000/svg"
   xmlns="http://www.w3.org/2000/svg"
   xml:space="preserve"
   enable-background="new 0 0 841.89 595.28"
   viewBox="0 0 574.55767 108.959"
   height="108.95901"
   width="574.55768"
   y="0px"
   x="0px"
   id="Ebene_1"
   version="1.1"><metadata
     id="metadata207"><rdf:RDF><cc:Work
         rdf:about=""><dc:format>image/svg+xml</dc:format><dc:type
           rdf:resource="http://purl.org/dc/dcmitype/StillImage" /><dc:title></dc:title></cc:Work></rdf:RDF></metadata><defs
     id="defs205" /><g
     transform="translate(-162.78389,-286.207)"
     id="g34"><path
       style="fill:#c01b1d"
       id="path2"
       d="m 504.032,378.473 h -3.399 c -0.869,0 -1.243,0.495 -1.243,1.122 0,0.605 0.385,1.155 1.188,1.155 h 3.454 v 1.122 h -3.399 c -0.869,0 -1.243,0.495 -1.243,1.123 0,0.627 0.385,1.154 1.243,1.154 h 3.399 v 1.122 h -5.578 v -1.1 h 0.562 c -0.407,-0.374 -0.627,-0.924 -0.627,-1.485 0,-0.693 0.274,-1.232 0.813,-1.584 -0.55,-0.451 -0.813,-1.013 -0.813,-1.749 0,-0.572 0.187,-1.078 0.506,-1.408 0.418,-0.43 0.946,-0.595 1.573,-0.595 h 3.564 z" /><path
       style="fill:#c01b1d"
       id="path4"
       d="m 504.032,372.622 h -0.506 c 0.407,0.407 0.572,0.792 0.572,1.485 0,0.693 -0.165,1.155 -0.507,1.496 -0.297,0.286 -0.726,0.44 -1.199,0.44 -0.935,0 -1.605,-0.649 -1.605,-1.937 v -1.463 h -0.396 c -0.715,0 -1.045,0.341 -1.045,1.221 0,0.594 0.154,0.902 0.55,1.221 l -0.693,0.727 c -0.615,-0.517 -0.813,-1.057 -0.813,-1.991 0,-1.54 0.66,-2.3 1.914,-2.3 h 3.729 v 1.101 z m -2.464,0.022 v 1.287 c 0,0.682 0.286,1.022 0.804,1.022 0.517,0 0.792,-0.318 0.792,-1.056 0,-0.396 -0.044,-0.715 -0.319,-1.013 -0.165,-0.176 -0.429,-0.241 -0.825,-0.241 h -0.452 z" /><path
       style="fill:#c01b1d"
       id="path6"
       d="m 504.032,366.803 -1.903,1.166 1.903,1.177 v 1.354 l -2.85,-1.914 -2.729,1.837 v -1.353 l 1.815,-1.101 -1.815,-1.089 v -1.354 l 2.729,1.826 2.85,-1.903 z" /><path
       style="fill:#c01b1d"
       id="path8"
       d="m 504.032,364.349 h -1.342 v -1.342 h 1.342 z" /><path
       style="fill:#c01b1d"
       id="path10"
       d="m 503.439,354.889 c 0.374,0.363 0.66,0.913 0.66,1.673 0,0.759 -0.286,1.298 -0.66,1.661 -0.551,0.528 -1.255,0.66 -2.2,0.66 -0.936,0 -1.64,-0.132 -2.189,-0.66 -0.374,-0.363 -0.66,-0.902 -0.66,-1.661 0,-0.76 0.286,-1.31 0.66,-1.673 0.55,-0.527 1.254,-0.659 2.189,-0.659 0.945,0 1.649,0.132 2.2,0.659 z m -3.73,0.848 c -0.209,0.209 -0.319,0.495 -0.319,0.825 0,0.33 0.11,0.604 0.319,0.813 0.341,0.342 0.924,0.386 1.529,0.386 0.604,0 1.188,-0.044 1.528,-0.386 0.209,-0.209 0.33,-0.483 0.33,-0.813 0,-0.33 -0.121,-0.616 -0.33,-0.825 -0.341,-0.341 -0.924,-0.385 -1.528,-0.385 -0.605,0 -1.188,0.044 -1.529,0.385 z" /><path
       style="fill:#c01b1d"
       id="path12"
       d="m 503.604,348.773 c 0.308,0.309 0.495,0.804 0.495,1.364 0,0.595 -0.154,1.057 -0.66,1.475 h 0.594 v 1.1 H 496.2 v -1.122 h 2.816 c -0.484,-0.406 -0.627,-0.869 -0.627,-1.463 0,-0.561 0.187,-1.045 0.495,-1.354 0.55,-0.539 1.44,-0.627 2.354,-0.627 0.924,0 1.815,0.088 2.366,0.627 z m -4.214,1.651 c 0,1.023 0.858,1.166 1.849,1.166 0.989,0 1.858,-0.143 1.858,-1.166 0,-1.012 -0.869,-1.155 -1.858,-1.155 -0.991,-0.001 -1.849,0.143 -1.849,1.155 z" /><path
       style="fill:#c01b1d"
       id="path14"
       d="m 506.31,347.036 v 0.693 h -0.957 v -0.495 c 0,-0.451 -0.22,-0.605 -0.649,-0.605 h -6.249 v -1.122 h 6.315 c 0.825,0 1.54,0.463 1.54,1.529 z m -8.955,-0.374 h -1.188 v -1.188 h 1.188 z" /><path
       style="fill:#c01b1d"
       id="path16"
       d="m 501.568,342.9 c 0.969,0 1.562,-0.495 1.562,-1.42 0,-0.627 -0.176,-0.957 -0.572,-1.353 l 0.672,-0.716 c 0.571,0.572 0.869,1.111 0.869,2.091 0,1.397 -0.737,2.508 -2.86,2.508 -1.815,0 -2.85,-0.935 -2.85,-2.365 0,-1.496 1.078,-2.365 2.706,-2.365 h 0.473 z m -1.54,-2.354 c -0.418,0.187 -0.704,0.572 -0.704,1.1 0,0.539 0.286,0.925 0.704,1.111 0.242,0.11 0.418,0.132 0.76,0.144 v -2.509 c -0.342,0.022 -0.518,0.043 -0.76,0.154 z" /><path
       style="fill:#c01b1d"
       id="path18"
       d="m 504.099,335.595 c 0,1.255 -0.771,2.486 -2.86,2.486 -2.091,0 -2.85,-1.231 -2.85,-2.486 0,-0.77 0.22,-1.309 0.781,-1.837 l 0.748,0.771 c -0.386,0.352 -0.528,0.627 -0.528,1.066 0,0.43 0.176,0.792 0.495,1.034 0.308,0.242 0.704,0.33 1.354,0.33 0.648,0 1.056,-0.088 1.363,-0.33 0.319,-0.242 0.495,-0.604 0.495,-1.034 0,-0.439 -0.143,-0.715 -0.527,-1.066 l 0.736,-0.771 c 0.561,0.529 0.793,1.068 0.793,1.837 z" /><path
       style="fill:#c01b1d"
       id="path20"
       d="m 504.032,330.8 c 0,1.046 -0.748,1.529 -1.551,1.529 h -3.169 v 0.639 h -0.858 v -0.639 h -1.595 v -1.122 h 1.595 v -1.078 h 0.858 v 1.078 h 3.113 c 0.407,0 0.649,-0.198 0.649,-0.616 v -0.462 h 0.957 v 0.671 z" /><path
       style="fill:#c01b1d"
       id="path22"
       d="m 504.032,322.66 h -3.399 c -0.869,0 -1.243,0.495 -1.243,1.123 0,0.627 0.385,1.154 1.243,1.154 h 3.399 v 1.122 h -7.833 v -1.122 h 2.816 c -0.418,-0.374 -0.627,-0.891 -0.627,-1.463 0,-0.572 0.187,-1.045 0.506,-1.375 0.418,-0.43 0.946,-0.562 1.573,-0.562 h 3.564 v 1.123 z" /><path
       style="fill:#c01b1d"
       id="path24"
       d="m 501.568,318.987 c 0.969,0 1.562,-0.495 1.562,-1.42 0,-0.627 -0.176,-0.957 -0.572,-1.353 l 0.672,-0.716 c 0.571,0.572 0.869,1.111 0.869,2.091 0,1.397 -0.737,2.508 -2.86,2.508 -1.815,0 -2.85,-0.935 -2.85,-2.365 0,-1.496 1.078,-2.365 2.706,-2.365 h 0.473 z m -1.54,-2.354 c -0.418,0.187 -0.704,0.572 -0.704,1.1 0,0.539 0.286,0.925 0.704,1.111 0.242,0.11 0.418,0.132 0.76,0.144 v -2.509 c -0.342,0.022 -0.518,0.043 -0.76,0.154 z" /><path
       style="fill:#c01b1d"
       id="path26"
       d="m 497.355,313.916 h -1.188 v -1.188 h 1.188 z m 6.677,-0.033 h -5.578 v -1.122 h 5.578 z" /><path
       style="fill:#c01b1d"
       id="path28"
       d="m 506.354,309.108 c 0,0.848 -0.198,1.387 -0.737,1.97 l -0.715,-0.715 c 0.33,-0.353 0.495,-0.66 0.495,-1.211 0,-0.945 -0.671,-1.309 -1.419,-1.309 h -0.716 c 0.484,0.407 0.639,0.869 0.639,1.441 0,0.561 -0.188,1.022 -0.495,1.331 -0.539,0.539 -1.32,0.627 -2.267,0.627 -0.947,0 -1.728,-0.088 -2.267,-0.627 -0.308,-0.309 -0.483,-0.781 -0.483,-1.343 0,-0.594 0.153,-1.045 0.66,-1.463 h -0.595 v -1.089 h 5.545 c 1.364,10e-4 2.355,0.903 2.355,2.388 z m -6.964,-0.132 c 0,1.013 0.869,1.145 1.749,1.145 0.88,0 1.749,-0.132 1.749,-1.145 0,-1.012 -0.869,-1.133 -1.749,-1.133 -0.88,0 -1.749,0.122 -1.749,1.133 z" /><path
       style="fill:#c01b1d"
       id="path30"
       d="m 504.032,301.54 h -3.399 c -0.869,0 -1.243,0.495 -1.243,1.122 0,0.628 0.385,1.155 1.243,1.155 h 3.399 v 1.122 h -7.833 v -1.122 h 2.816 c -0.418,-0.374 -0.627,-0.891 -0.627,-1.463 0,-0.572 0.187,-1.045 0.506,-1.375 0.418,-0.429 0.946,-0.562 1.573,-0.562 h 3.564 v 1.123 z" /><path
       style="fill:#c01b1d"
       id="path32"
       d="m 504.032,297.03 c 0,1.046 -0.748,1.529 -1.551,1.529 h -3.169 v 0.639 h -0.858 v -0.639 h -1.595 v -1.122 h 1.595 v -1.078 h 0.858 v 1.078 h 3.113 c 0.407,0 0.649,-0.198 0.649,-0.616 v -0.462 h 0.957 v 0.671 z" /></g><line
     style="fill:none;stroke:#c01b1d;stroke-width:0.16599999;stroke-miterlimit:10"
     y2="77.277985"
     x2="292.00009"
     y1="77.277985"
     x1="296.58609"
     stroke-miterlimit="10"
     id="line429_6_" /><line
     style="fill:none;stroke:#c01b1d;stroke-width:0.16599999;stroke-miterlimit:10"
     y2="80.112"
     x2="292.00009"
     y1="80.112"
     x1="300.9971"
     stroke-miterlimit="10"
     id="line431_6_" /><line
     style="fill:none;stroke:#c01b1d;stroke-width:0.16599999;stroke-miterlimit:10"
     y2="82.946991"
     x2="292.00009"
     y1="82.946991"
     x1="296.58609"
     stroke-miterlimit="10"
     id="line433_6_" /><line
     style="fill:none;stroke:#c01b1d;stroke-width:0.16599999;stroke-miterlimit:10"
     y2="85.782013"
     x2="292.00009"
     y1="85.782013"
     x1="296.58609"
     stroke-miterlimit="10"
     id="line435_6_" /><line
     style="fill:none;stroke:#c01b1d;stroke-width:0.16599999;stroke-miterlimit:10"
     y2="88.615997"
     x2="292.00009"
     y1="88.615997"
     x1="296.58609"
     stroke-miterlimit="10"
     id="line437_6_" /><line
     style="fill:none;stroke:#c01b1d;stroke-width:0.16599999;stroke-miterlimit:10"
     y2="91.450989"
     x2="292.00009"
     y1="91.450989"
     x1="296.58609"
     stroke-miterlimit="10"
     id="line439_6_" /><line
     style="fill:none;stroke:#c01b1d;stroke-width:0.16599999;stroke-miterlimit:10"
     y2="94.286011"
     x2="292.00009"
     y1="94.286011"
     x1="300.9971"
     stroke-miterlimit="10"
     id="line441_6_" /><line
     style="fill:none;stroke:#c01b1d;stroke-width:0.16599999;stroke-miterlimit:10"
     y2="105.62399"
     x2="292.00009"
     y1="105.62399"
     x1="296.58609"
     stroke-miterlimit="10"
     id="line443_6_" /><line
     style="fill:none;stroke:#c01b1d;stroke-width:0.16599999;stroke-miterlimit:10"
     y2="97.119995"
     x2="292.00009"
     y1="97.119995"
     x1="296.58609"
     stroke-miterlimit="10"
     id="line445_6_" /><line
     style="fill:none;stroke:#c01b1d;stroke-width:0.16599999;stroke-miterlimit:10"
     y2="99.954987"
     x2="292.00009"
     y1="99.954987"
     x1="296.58609"
     stroke-miterlimit="10"
     id="line447_6_" /><line
     style="fill:none;stroke:#c01b1d;stroke-width:0.16599999;stroke-miterlimit:10"
     y2="102.79001"
     x2="292.00009"
     y1="102.79001"
     x1="296.58609"
     stroke-miterlimit="10"
     id="line449_6_" /><line
     style="fill:none;stroke:#c01b1d;stroke-width:0.16599999;stroke-miterlimit:10"
     y2="48.931"
     x2="292.00009"
     y1="48.931"
     x1="296.58609"
     stroke-miterlimit="10"
     id="line451_6_" /><line
     style="fill:none;stroke:#c01b1d;stroke-width:0.16599999;stroke-miterlimit:10"
     y2="51.765991"
     x2="292.00009"
     y1="51.765991"
     x1="300.9971"
     stroke-miterlimit="10"
     id="line453_6_" /><line
     style="fill:none;stroke:#c01b1d;stroke-width:0.16599999;stroke-miterlimit:10"
     y2="54.601013"
     x2="292.00009"
     y1="54.601013"
     x1="296.58609"
     stroke-miterlimit="10"
     id="line455_6_" /><line
     style="fill:none;stroke:#c01b1d;stroke-width:0.16599999;stroke-miterlimit:10"
     y2="57.434998"
     x2="292.00009"
     y1="57.434998"
     x1="296.58609"
     stroke-miterlimit="10"
     id="line457_6_" /><line
     style="fill:none;stroke:#c01b1d;stroke-width:0.16599999;stroke-miterlimit:10"
     y2="60.269989"
     x2="292.00009"
     y1="60.269989"
     x1="296.58609"
     stroke-miterlimit="10"
     id="line459_6_" /><line
     style="fill:none;stroke:#c01b1d;stroke-width:0.16599999;stroke-miterlimit:10"
     y2="63.105011"
     x2="292.00009"
     y1="63.105011"
     x1="296.58609"
     stroke-miterlimit="10"
     id="line461_6_" /><line
     style="fill:none;stroke:#c01b1d;stroke-width:0.16599999;stroke-miterlimit:10"
     y2="65.938995"
     x2="292.00009"
     y1="65.938995"
     x1="300.9971"
     stroke-miterlimit="10"
     id="line463_6_" /><line
     style="fill:none;stroke:#c01b1d;stroke-width:0.16599999;stroke-miterlimit:10"
     y2="68.773987"
     x2="292.00009"
     y1="68.773987"
     x1="296.58609"
     stroke-miterlimit="10"
     id="line465_6_" /><line
     style="fill:none;stroke:#c01b1d;stroke-width:0.16599999;stroke-miterlimit:10"
     y2="71.608002"
     x2="292.00009"
     y1="71.608002"
     x1="296.58609"
     stroke-miterlimit="10"
     id="line467_6_" /><line
     style="fill:none;stroke:#c01b1d;stroke-width:0.16599999;stroke-miterlimit:10"
     y2="74.442993"
     x2="292.00009"
     y1="74.442993"
     x1="296.58609"
     stroke-miterlimit="10"
     id="line469_6_" /><line
     style="fill:none;stroke:#c01b1d;stroke-width:0.16599999;stroke-miterlimit:10"
     y2="20.584991"
     x2="292.00009"
     y1="20.584991"
     x1="296.58609"
     stroke-miterlimit="10"
     id="line471_6_" /><line
     style="fill:none;stroke:#c01b1d;stroke-width:0.16599999;stroke-miterlimit:10"
     y2="23.419006"
     x2="292.00009"
     y1="23.419006"
     x1="300.9971"
     stroke-miterlimit="10"
     id="line473_6_" /><line
     style="fill:none;stroke:#c01b1d;stroke-width:0.16599999;stroke-miterlimit:10"
     y2="26.253998"
     x2="292.00009"
     y1="26.253998"
     x1="296.58609"
     stroke-miterlimit="10"
     id="line475_6_" /><line
     style="fill:none;stroke:#c01b1d;stroke-width:0.16599999;stroke-miterlimit:10"
     y2="29.088989"
     x2="292.00009"
     y1="29.088989"
     x1="296.58609"
     stroke-miterlimit="10"
     id="line477_6_" /><line
     style="fill:none;stroke:#c01b1d;stroke-width:0.16599999;stroke-miterlimit:10"
     y2="31.923004"
     x2="292.00009"
     y1="31.923004"
     x1="296.58609"
     stroke-miterlimit="10"
     id="line479_6_" /><line
     style="fill:none;stroke:#c01b1d;stroke-width:0.16599999;stroke-miterlimit:10"
     y2="34.757996"
     x2="292.00009"
     y1="34.757996"
     x1="296.58609"
     stroke-miterlimit="10"
     id="line481_6_" /><line
     style="fill:none;stroke:#c01b1d;stroke-width:0.16599999;stroke-miterlimit:10"
     y2="37.592987"
     x2="292.00009"
     y1="37.592987"
     x1="300.9971"
     stroke-miterlimit="10"
     id="line483_6_" /><line
     style="fill:none;stroke:#c01b1d;stroke-width:0.16599999;stroke-miterlimit:10"
     y2="40.427002"
     x2="292.00009"
     y1="40.427002"
     x1="296.58609"
     stroke-miterlimit="10"
     id="line485_6_" /><line
     style="fill:none;stroke:#c01b1d;stroke-width:0.16599999;stroke-miterlimit:10"
     y2="43.261993"
     x2="292.00009"
     y1="43.261993"
     x1="296.58609"
     stroke-miterlimit="10"
     id="line487_6_" /><line
     style="fill:none;stroke:#c01b1d;stroke-width:0.16599999;stroke-miterlimit:10"
     y2="46.096985"
     x2="292.00009"
     y1="46.096985"
     x1="296.58609"
     stroke-miterlimit="10"
     id="line489_6_" /><line
     style="fill:none;stroke:#c01b1d;stroke-width:0.16599999;stroke-miterlimit:10"
     y2="3.5769966"
     x2="292.00009"
     y1="3.5769966"
     x1="296.58609"
     stroke-miterlimit="10"
     id="line491_5_" /><line
     style="fill:none;stroke:#c01b1d;stroke-width:0.16599999;stroke-miterlimit:10"
     y2="6.4119883"
     x2="292.00009"
     y1="6.4119883"
     x1="296.58609"
     stroke-miterlimit="10"
     id="line493_5_" /><line
     style="fill:none;stroke:#c01b1d;stroke-width:0.16599999;stroke-miterlimit:10"
     y2="9.2460032"
     x2="292.00009"
     y1="9.2460032"
     x1="300.9971"
     stroke-miterlimit="10"
     id="line495_5_" /><line
     style="fill:none;stroke:#c01b1d;stroke-width:0.16599999;stroke-miterlimit:10"
     y2="12.080995"
     x2="292.00009"
     y1="12.080995"
     x1="296.58609"
     stroke-miterlimit="10"
     id="line497_5_" /><line
     style="fill:none;stroke:#c01b1d;stroke-width:0.16599999;stroke-miterlimit:10"
     y2="14.915986"
     x2="292.00009"
     y1="14.915986"
     x1="296.58609"
     stroke-miterlimit="10"
     id="line499_5_" /><line
     style="fill:none;stroke:#c01b1d;stroke-width:0.16599999;stroke-miterlimit:10"
     y2="17.75"
     x2="292.00009"
     y1="17.75"
     x1="296.58609"
     stroke-miterlimit="10"
     id="line501_5_" /><g
     transform="translate(-162.78389,-286.207)"
     id="g577_6_"><path
       style="fill:#c01b1d"
       d="m 256.813,368.12 c -1.067,0 -1.529,-0.715 -1.529,-1.54 v -6.293 h 1.123 v 6.227 c 0,0.43 0.154,0.649 0.605,0.649 h 0.495 v 0.957 z"
       id="path579_6_" /><path
       style="fill:#c01b1d"
       d="m 261.741,368.12 v -0.506 c -0.407,0.407 -0.792,0.572 -1.485,0.572 -0.693,0 -1.155,-0.165 -1.496,-0.507 -0.286,-0.297 -0.44,-0.726 -0.44,-1.199 0,-0.935 0.649,-1.605 1.936,-1.605 h 1.463 v -0.396 c 0,-0.715 -0.341,-1.045 -1.221,-1.045 -0.594,0 -0.902,0.154 -1.221,0.55 l -0.726,-0.693 c 0.517,-0.615 1.056,-0.813 1.991,-0.813 1.541,0 2.299,0.66 2.299,1.914 v 3.729 z m -0.022,-2.465 h -1.287 c -0.682,0 -1.023,0.286 -1.023,0.804 0,0.517 0.319,0.792 1.056,0.792 0.396,0 0.715,-0.044 1.012,-0.319 0.176,-0.165 0.242,-0.429 0.242,-0.825 z"
       id="path581_6_" /><path
       style="fill:#c01b1d"
       d="m 266.372,368.186 c -0.913,0 -1.683,-0.154 -2.343,-0.804 l 0.737,-0.737 c 0.451,0.463 1.056,0.583 1.606,0.583 0.693,0 1.221,-0.241 1.221,-0.77 0,-0.385 -0.209,-0.605 -0.748,-0.66 l -0.891,-0.077 c -1.056,-0.099 -1.65,-0.561 -1.65,-1.54 0,-1.101 0.935,-1.705 2.102,-1.705 0.847,0 1.551,0.176 2.068,0.627 l -0.704,0.715 c -0.352,-0.297 -0.847,-0.407 -1.375,-0.407 -0.682,0 -1.012,0.286 -1.012,0.716 0,0.385 0.22,0.583 0.771,0.638 l 0.781,0.066 c 1.155,0.099 1.76,0.604 1.76,1.584 -0.002,1.166 -0.992,1.771 -2.323,1.771 z"
       id="path583_6_" /><path
       style="fill:#c01b1d"
       d="m 270.882,365.655 c 0,0.969 0.495,1.562 1.419,1.562 0.627,0 0.958,-0.176 1.354,-0.572 l 0.715,0.672 c -0.572,0.571 -1.111,0.869 -2.09,0.869 -1.397,0 -2.508,-0.737 -2.508,-2.86 0,-1.815 0.935,-2.85 2.365,-2.85 1.497,0 2.366,1.078 2.366,2.706 v 0.473 z m 2.354,-1.54 c -0.187,-0.418 -0.572,-0.704 -1.101,-0.704 -0.539,0 -0.924,0.286 -1.111,0.704 -0.11,0.242 -0.132,0.418 -0.143,0.76 h 2.508 c -0.021,-0.342 -0.043,-0.518 -0.153,-0.76 z"
       id="path585_6_" /><path
       style="fill:#c01b1d"
       d="m 279.055,363.851 c -0.253,-0.253 -0.451,-0.374 -0.836,-0.374 -0.605,0 -1.111,0.484 -1.111,1.254 v 3.389 h -1.122 v -5.578 h 1.1 v 0.605 c 0.286,-0.396 0.858,-0.671 1.485,-0.671 0.539,0 0.946,0.143 1.331,0.527 z"
       id="path587_6_" /><path
       style="fill:#c01b1d"
       d="m 284.214,368.12 v -3.399 c 0,-0.869 -0.495,-1.243 -1.122,-1.243 -0.628,0 -1.155,0.385 -1.155,1.243 v 3.399 h -1.122 v -7.833 h 1.122 v 2.816 c 0.374,-0.418 0.891,-0.627 1.463,-0.627 0.572,0 1.045,0.187 1.375,0.506 0.429,0.418 0.562,0.946 0.562,1.573 v 3.564 h -1.123 z"
       id="path589_6_" /><path
       style="fill:#c01b1d"
       d="m 287.887,365.655 c 0,0.969 0.495,1.562 1.42,1.562 0.627,0 0.957,-0.176 1.353,-0.572 l 0.716,0.672 c -0.572,0.571 -1.111,0.869 -2.091,0.869 -1.397,0 -2.508,-0.737 -2.508,-2.86 0,-1.815 0.935,-2.85 2.365,-2.85 1.496,0 2.365,1.078 2.365,2.706 v 0.473 z m 2.355,-1.54 c -0.187,-0.418 -0.572,-0.704 -1.1,-0.704 -0.539,0 -0.925,0.286 -1.111,0.704 -0.11,0.242 -0.132,0.418 -0.144,0.76 h 2.509 c -0.023,-0.342 -0.044,-0.518 -0.154,-0.76 z"
       id="path591_6_" /><path
       style="fill:#c01b1d"
       d="m 295.995,368.12 v -0.506 c -0.407,0.407 -0.792,0.572 -1.485,0.572 -0.693,0 -1.155,-0.165 -1.496,-0.507 -0.286,-0.297 -0.44,-0.726 -0.44,-1.199 0,-0.935 0.649,-1.605 1.937,-1.605 h 1.464 v -0.396 c 0,-0.715 -0.342,-1.045 -1.222,-1.045 -0.594,0 -0.902,0.154 -1.221,0.55 l -0.727,-0.693 c 0.517,-0.615 1.056,-0.813 1.991,-0.813 1.54,0 2.3,0.66 2.3,1.914 v 3.729 z m -0.022,-2.465 h -1.288 c -0.682,0 -1.022,0.286 -1.022,0.804 0,0.517 0.318,0.792 1.056,0.792 0.396,0 0.715,-0.044 1.013,-0.319 0.176,-0.165 0.242,-0.429 0.242,-0.825 v -0.452 z"
       id="path593_6_" /><path
       style="fill:#c01b1d"
       d="m 302.023,368.12 v -0.594 c -0.418,0.506 -0.869,0.66 -1.475,0.66 -0.561,0 -1.056,-0.188 -1.364,-0.495 -0.539,-0.551 -0.627,-1.441 -0.627,-2.365 0,-0.914 0.088,-1.805 0.627,-2.354 0.309,-0.309 0.792,-0.495 1.354,-0.495 0.594,0 1.056,0.143 1.463,0.627 v -2.816 h 1.122 v 7.833 h -1.1 z m -1.178,-4.643 c -1.022,0 -1.166,0.858 -1.166,1.849 0,0.989 0.144,1.858 1.166,1.858 1.013,0 1.155,-0.869 1.155,-1.858 0,-0.991 -0.142,-1.849 -1.155,-1.849 z"
       id="path595_6_" /></g><g
     transform="translate(-162.78389,-286.207)"
     id="g597_6_"><path
       style="fill:#c01b1d"
       d="m 262.115,386.219 v -3.399 c 0,-0.869 -0.495,-1.243 -1.122,-1.243 -0.605,0 -1.155,0.385 -1.155,1.188 v 3.454 h -1.122 v -3.399 c 0,-0.869 -0.495,-1.243 -1.122,-1.243 -0.627,0 -1.155,0.385 -1.155,1.243 v 3.399 h -1.122 v -5.578 h 1.1 v 0.562 c 0.374,-0.407 0.924,-0.627 1.485,-0.627 0.693,0 1.232,0.274 1.584,0.813 0.451,-0.55 1.012,-0.813 1.75,-0.813 0.572,0 1.078,0.187 1.408,0.506 0.429,0.418 0.594,0.946 0.594,1.573 v 3.564 z"
       id="path599_6_" /><path
       style="fill:#c01b1d"
       d="m 267.967,386.219 v -0.506 c -0.407,0.407 -0.792,0.572 -1.485,0.572 -0.693,0 -1.155,-0.165 -1.496,-0.507 -0.286,-0.297 -0.44,-0.726 -0.44,-1.199 0,-0.935 0.649,-1.605 1.936,-1.605 h 1.463 v -0.396 c 0,-0.715 -0.341,-1.045 -1.221,-1.045 -0.594,0 -0.902,0.154 -1.221,0.55 l -0.726,-0.693 c 0.517,-0.615 1.056,-0.813 1.991,-0.813 1.541,0 2.299,0.66 2.299,1.914 v 3.729 z m -0.022,-2.464 h -1.287 c -0.682,0 -1.023,0.285 -1.023,0.803 0,0.517 0.319,0.792 1.056,0.792 0.396,0 0.715,-0.044 1.012,-0.319 0.176,-0.165 0.242,-0.429 0.242,-0.825 z"
       id="path601_6_" /><path
       style="fill:#c01b1d"
       d="m 272.454,386.219 c -1.045,0 -1.529,-0.748 -1.529,-1.551 v -3.169 h -0.638 v -0.858 h 0.638 v -1.595 h 1.123 v 1.595 h 1.078 v 0.858 h -1.078 v 3.113 c 0,0.407 0.198,0.649 0.616,0.649 h 0.462 v 0.957 h -0.672 z"
       id="path603_6_" /><path
       style="fill:#c01b1d"
       d="m 275.326,383.755 c 0,0.968 0.495,1.562 1.419,1.562 0.627,0 0.958,-0.176 1.354,-0.572 l 0.715,0.672 c -0.572,0.571 -1.111,0.869 -2.09,0.869 -1.397,0 -2.508,-0.737 -2.508,-2.86 0,-1.815 0.935,-2.85 2.365,-2.85 1.497,0 2.366,1.078 2.366,2.706 v 0.474 h -3.621 z m 2.354,-1.541 c -0.187,-0.418 -0.572,-0.704 -1.101,-0.704 -0.539,0 -0.924,0.286 -1.111,0.704 -0.11,0.242 -0.132,0.418 -0.143,0.76 h 2.508 c -0.021,-0.342 -0.043,-0.517 -0.153,-0.76 z"
       id="path605_6_" /><path
       style="fill:#c01b1d"
       d="m 283.498,381.951 c -0.253,-0.253 -0.451,-0.374 -0.836,-0.374 -0.605,0 -1.111,0.484 -1.111,1.254 v 3.389 h -1.122 v -5.578 h 1.101 v 0.605 c 0.285,-0.396 0.857,-0.671 1.484,-0.671 0.539,0 0.946,0.143 1.332,0.527 z"
       id="path607_6_" /><path
       style="fill:#c01b1d"
       d="m 285.225,379.541 v -1.188 h 1.188 v 1.188 z m 0.033,6.678 v -5.578 h 1.122 v 5.578 z"
       id="path609_6_" /><path
       style="fill:#c01b1d"
       d="m 291.165,386.219 v -0.506 c -0.407,0.407 -0.792,0.572 -1.485,0.572 -0.693,0 -1.155,-0.165 -1.496,-0.507 -0.286,-0.297 -0.44,-0.726 -0.44,-1.199 0,-0.935 0.649,-1.605 1.937,-1.605 h 1.463 v -0.396 c 0,-0.715 -0.341,-1.045 -1.221,-1.045 -0.594,0 -0.902,0.154 -1.221,0.55 l -0.727,-0.693 c 0.517,-0.615 1.057,-0.813 1.991,-0.813 1.54,0 2.3,0.66 2.3,1.914 v 3.729 z m -0.022,-2.464 h -1.287 c -0.682,0 -1.022,0.285 -1.022,0.803 0,0.517 0.318,0.792 1.056,0.792 0.396,0 0.715,-0.044 1.013,-0.319 0.176,-0.165 0.241,-0.429 0.241,-0.825 z"
       id="path611_6_" /><path
       style="fill:#c01b1d"
       d="m 295.489,386.219 c -1.067,0 -1.529,-0.715 -1.529,-1.54 v -6.293 h 1.122 v 6.227 c 0,0.43 0.154,0.649 0.604,0.649 h 0.495 v 0.957 z"
       id="path613_6_" /></g><line
     style="fill:none;stroke:#42ab37;stroke-miterlimit:10"
     y2="0.50000072"
     x2="291.6171"
     y1="108.45898"
     x1="291.96609"
     stroke-miterlimit="10"
     id="line615_6_" /><rect
     style="fill:none;stroke:#010202;stroke-miterlimit:10"
     height="21.26"
     width="1.984"
     stroke-miterlimit="10"
     y="87.199005"
     x="529.30511"
     id="rect617_6_" /><path
     style="fill:none;stroke:#020304;stroke-width:1.04779994;stroke-miterlimit:10"
     d="m 314.14711,89.005 c 0,3.052 -2.253,5.526 -5.033,5.526 v 0 c -2.78,0 -5.033,-2.474 -5.033,-5.526 V 19.953 c 0,-3.052 2.253,-5.526 5.033,-5.526 v 0 c 2.78,0 5.033,2.474 5.033,5.526 z"
     stroke-miterlimit="10"
     id="path619_6_" /><g
     transform="translate(-162.78389,-286.207)"
     id="g621_6_"><path
       style="fill:#c01b1d"
       d="m 414.223,364.529 h 5.146 v 1.224 h -5.146 v 0.695 h -0.936 v -0.695 h -0.827 c -0.876,0 -1.691,-0.527 -1.691,-1.667 v -0.768 h 1.044 v 0.54 c 0,0.455 0.264,0.671 0.707,0.671 h 0.768 v -1.211 h 0.936 v 1.211 z"
       id="path623_6_" /><path
       style="fill:#c01b1d"
       d="m 418.721,358.123 c 0.407,0.396 0.72,0.995 0.72,1.823 0,0.827 -0.312,1.415 -0.72,1.811 -0.6,0.576 -1.367,0.72 -2.398,0.72 -1.02,0 -1.787,-0.144 -2.387,-0.72 -0.408,-0.396 -0.72,-0.983 -0.72,-1.811 0,-0.828 0.312,-1.428 0.72,-1.823 0.6,-0.575 1.367,-0.72 2.387,-0.72 1.031,0 1.798,0.145 2.398,0.72 z m -4.066,0.924 c -0.228,0.228 -0.348,0.539 -0.348,0.899 0,0.359 0.12,0.659 0.348,0.888 0.372,0.371 1.008,0.42 1.668,0.42 0.659,0 1.295,-0.049 1.667,-0.42 0.228,-0.229 0.359,-0.528 0.359,-0.888 0,-0.36 -0.132,-0.672 -0.359,-0.899 -0.372,-0.372 -1.008,-0.42 -1.667,-0.42 -0.661,0 -1.296,0.048 -1.668,0.42 z"
       id="path625_6_" /><path
       style="fill:#c01b1d"
       d="m 419.441,353.346 c 0,1.367 -0.84,2.71 -3.118,2.71 -2.279,0 -3.106,-1.343 -3.106,-2.71 0,-0.84 0.239,-1.428 0.852,-2.003 l 0.815,0.839 c -0.42,0.384 -0.576,0.684 -0.576,1.164 0,0.468 0.192,0.863 0.54,1.127 0.336,0.264 0.768,0.36 1.476,0.36 0.707,0 1.151,-0.097 1.486,-0.36 0.349,-0.264 0.54,-0.659 0.54,-1.127 0,-0.48 -0.156,-0.78 -0.575,-1.164 l 0.803,-0.839 c 0.611,0.576 0.863,1.164 0.863,2.003 z"
       id="path627_6_" /><path
       style="fill:#c01b1d"
       d="m 419.368,346.255 h -0.611 c 0.455,0.42 0.684,1.008 0.684,1.619 0,0.624 -0.204,1.14 -0.552,1.5 -0.456,0.468 -1.031,0.611 -1.715,0.611 h -3.887 v -1.224 h 3.706 c 0.948,0 1.355,-0.539 1.355,-1.223 0,-0.685 -0.42,-1.26 -1.355,-1.26 h -3.706 v -1.224 h 6.081 z"
       id="path629_6_" /><path
       style="fill:#c01b1d"
       d="m 419.441,341.142 c 0,0.995 -0.168,1.835 -0.876,2.555 l -0.804,-0.804 c 0.504,-0.492 0.636,-1.151 0.636,-1.751 0,-0.756 -0.264,-1.331 -0.839,-1.331 -0.42,0 -0.66,0.228 -0.72,0.815 l -0.084,0.972 c -0.108,1.151 -0.612,1.799 -1.68,1.799 -1.199,0 -1.858,-1.02 -1.858,-2.291 0,-0.923 0.191,-1.69 0.684,-2.255 l 0.779,0.768 c -0.324,0.384 -0.443,0.924 -0.443,1.499 0,0.744 0.312,1.104 0.779,1.104 0.42,0 0.636,-0.239 0.695,-0.84 l 0.072,-0.851 c 0.107,-1.26 0.659,-1.919 1.727,-1.919 1.272,0 1.932,1.079 1.932,2.53 z"
       id="path631_6_" /><path
       style="fill:#c01b1d"
       d="m 419.368,332.43 c 0,1.139 -0.815,1.667 -1.691,1.667 h -3.454 v 0.695 h -0.936 v -0.695 h -1.738 v -1.224 h 1.738 v -1.175 h 0.936 v 1.175 h 3.395 c 0.443,0 0.708,-0.216 0.708,-0.672 v -0.503 h 1.043 z"
       id="path633_6_" /><path
       style="fill:#c01b1d"
       d="m 418.721,326.133 c 0.407,0.396 0.72,0.995 0.72,1.823 0,0.827 -0.312,1.415 -0.72,1.811 -0.6,0.576 -1.367,0.72 -2.398,0.72 -1.02,0 -1.787,-0.144 -2.387,-0.72 -0.408,-0.396 -0.72,-0.983 -0.72,-1.811 0,-0.828 0.312,-1.428 0.72,-1.823 0.6,-0.576 1.367,-0.72 2.387,-0.72 1.031,0 1.798,0.143 2.398,0.72 z m -4.066,0.923 c -0.228,0.228 -0.348,0.539 -0.348,0.899 0,0.359 0.12,0.659 0.348,0.887 0.372,0.372 1.008,0.42 1.668,0.42 0.659,0 1.295,-0.048 1.667,-0.42 0.228,-0.228 0.359,-0.527 0.359,-0.887 0,-0.36 -0.132,-0.672 -0.359,-0.899 -0.372,-0.372 -1.008,-0.42 -1.667,-0.42 -0.661,0 -1.296,0.048 -1.668,0.42 z"
       id="path635_6_" /><path
       style="fill:#c01b1d"
       d="m 418.721,319.689 c 0.407,0.396 0.72,0.995 0.72,1.823 0,0.827 -0.312,1.415 -0.72,1.811 -0.6,0.576 -1.367,0.72 -2.398,0.72 -1.02,0 -1.787,-0.144 -2.387,-0.72 -0.408,-0.396 -0.72,-0.983 -0.72,-1.811 0,-0.828 0.312,-1.428 0.72,-1.823 0.6,-0.576 1.367,-0.72 2.387,-0.72 1.031,0 1.798,0.144 2.398,0.72 z m -4.066,0.924 c -0.228,0.228 -0.348,0.539 -0.348,0.899 0,0.359 0.12,0.659 0.348,0.887 0.372,0.372 1.008,0.42 1.668,0.42 0.659,0 1.295,-0.048 1.667,-0.42 0.228,-0.228 0.359,-0.527 0.359,-0.887 0,-0.36 -0.132,-0.672 -0.359,-0.899 -0.372,-0.372 -1.008,-0.42 -1.667,-0.42 -0.661,0 -1.296,0.048 -1.668,0.42 z"
       id="path637_6_" /><path
       style="fill:#c01b1d"
       d="m 419.368,315.68 c 0,1.163 -0.779,1.667 -1.679,1.667 h -6.86 v -1.224 h 6.788 c 0.468,0 0.708,-0.168 0.708,-0.659 v -0.54 h 1.043 z"
       id="path639_6_" /></g><polygon
     transform="translate(-162.78389,-286.207)"
     style="fill:#c01b1d"
     points="244.381,380.27 244.381,389.741 242.347,387.706 242.347,390.155 245.231,393.04 248.116,390.155 248.116,387.706 246.082,389.741 246.082,380.27 "
     id="polygon641_6_" /><polygon
     transform="translate(-162.78389,-286.207)"
     style="fill:#c01b1d"
     points="242.347,357.5 242.347,359.949 244.381,357.914 244.381,367.385 246.082,367.385 246.082,357.914 248.116,359.949 248.116,357.5 245.231,354.615 "
     id="polygon643_6_" /><line
     style="fill:none;stroke:#42ab37;stroke-miterlimit:10"
     y2="0.50000072"
     x2="288.7821"
     y1="108.45898"
     x1="288.43408"
     stroke-miterlimit="10"
     id="line645_6_" /><polygon
     transform="translate(-162.78389,-286.207)"
     style="fill:none;stroke:#020304;stroke-miterlimit:10"
     points="204.069,394.666 172.632,394.666 169.629,373.351 172.632,352.091 205.047,352.091 255.238,352.091 255.238,286.707 451.566,286.707 454.401,286.707 651.36,286.707 651.36,352.146 701.55,352.146 733.965,352.146 736.837,373.406 733.965,394.666 701.899,394.666 651.708,394.666 454.75,394.666 451.218,394.666 254.259,394.666 "
     stroke-miterlimit="10"
     id="polygon647_6_" /><rect
     style="fill:none;stroke:#010202;stroke-miterlimit:10"
     height="21.26"
     width="1.984"
     stroke-miterlimit="10"
     y="87.199005"
     x="49.079113"
     id="rect649_6_" /><g
     transform="translate(-162.78389,-286.207)"
     id="g651_6_"><path
       style="fill:#c01b1d"
       d="m 375.388,334.864 c 0.157,0.901 2.436,1.311 3.405,2.075 1.09,0.857 2.271,1.527 3.915,1.918 -0.296,-0.335 -0.227,-0.568 -0.196,-0.744 2.936,0.627 4.188,-0.744 3.993,-0.783 -0.366,0.115 -0.51,0.049 -0.626,0 0.509,-0.392 0.9,-1.957 0.743,-3.601 -0.704,1.604 -1.879,1.8 -2.78,1.487 -0.9,-0.313 -2.426,-3.327 -3.17,-4.07 0.345,-0.036 0.762,0.053 0.979,0.157 -0.352,-0.627 -1.41,-0.823 -3.053,-0.587 0.195,-0.274 0.547,-0.626 1.408,-0.861 -2.974,-0.157 -4.188,2.153 -4.892,3.562 h -0.083 c -0.705,-1.409 -1.918,-3.719 -4.893,-3.562 0.861,0.235 1.213,0.588 1.409,0.861 -1.644,-0.236 -2.702,-0.04 -3.053,0.587 0.216,-0.104 0.634,-0.193 0.978,-0.157 -0.744,0.744 -2.27,3.757 -3.17,4.07 -0.9,0.314 -2.075,0.118 -2.78,-1.487 -0.157,1.644 0.235,3.21 0.744,3.601 -0.117,0.049 -0.26,0.115 -0.627,0 -0.196,0.039 1.057,1.41 3.993,0.783 0.033,0.176 0.101,0.408 -0.195,0.744 1.644,-0.391 2.826,-1.061 3.914,-1.918 0.969,-0.763 3.204,-1.149 3.405,-2.075 0.224,-0.244 0.443,-0.21 0.632,0 z"
       id="path3572_7_" /><path
       style="fill:#c01b1d"
       d="m 393.547,315.21 v 0 c -2.319,0 -15.066,0 -15.454,0 -0.427,0 -1.08,0.326 -1.284,0.572 -0.204,0.245 -0.727,0.949 -0.727,0.949 h -2.021 c 0,0 -0.524,-0.703 -0.728,-0.949 -0.203,-0.246 -0.856,-0.572 -1.283,-0.572 -0.391,0 -13.269,0 -15.49,0 -0.21,0 -0.325,0.16 -0.325,0.321 0,0.162 0,1.245 0,1.347 0,0.103 0.058,0.301 0.145,0.346 0.239,0.124 0.698,0.363 0.788,0.411 0.123,0.064 0.347,0.421 0.394,0.606 0.047,0.185 1.8,7.13 1.897,7.511 0.113,0.449 0.51,0.812 1.017,0.812 2.335,0 8.935,0 9.414,0 0.582,0 1.229,-0.355 1.52,-0.879 0.291,-0.526 3.168,-5.72 3.168,-5.72 h 0.987 c 0,0 2.877,5.195 3.168,5.72 0.291,0.525 0.937,0.879 1.52,0.879 0.479,0 7.079,0 9.415,0 0.506,0 0.903,-0.363 1.016,-0.812 0.096,-0.377 1.451,-5.745 1.883,-7.454 0.082,-0.326 0.328,-0.621 0.541,-0.732 0.132,-0.069 0.409,-0.213 0.6,-0.313 0.117,-0.06 0.202,-0.188 0.202,-0.359 0,-0.171 0,-1.264 0,-1.395 -0.002,-0.129 -0.13,-0.289 -0.363,-0.289 z m -21.426,2.545 v 0 l -1.419,6.163 c -0.169,0.734 -0.923,1.334 -1.676,1.334 h -6.971 c -0.753,0 -1.468,-0.608 -1.588,-1.351 l -0.994,-6.128 c -0.121,-0.743 0.397,-1.351 1.15,-1.351 h 10.439 c 0.75,-0.001 1.228,0.599 1.059,1.333 z m 18.82,0.017 -0.994,6.128 c -0.121,0.743 -0.836,1.351 -1.588,1.351 h -6.971 c -0.753,0 -1.507,-0.6 -1.676,-1.334 l -1.421,-6.163 c -0.168,-0.734 0.309,-1.334 1.062,-1.334 h 10.439 c 0.752,10e-4 1.269,0.609 1.149,1.352 z"
       id="path654_6_" /></g><polygon
     transform="translate(-162.78389,-286.207)"
     style="fill:#c01b1d"
     points="337.57,345.709 337.57,356.594 335.232,354.255 335.232,357.07 338.547,360.385 341.863,357.07 341.863,354.255 339.525,356.594 339.525,345.709 "
     id="polygon656_6_" /><polygon
     transform="translate(-162.78389,-286.207)"
     style="fill:#c01b1d"
     points="335.232,331.417 335.232,334.232 337.57,331.893 337.57,342.778 339.525,342.778 339.525,331.893 341.863,334.232 341.863,331.417 338.547,328.102 "
     id="polygon658_6_" /><path
     style="fill:none;stroke:#c01b1d;stroke-width:0.79360002;stroke-miterlimit:10"
     d="m 233.21511,14.437 c 0,0 4.544,-0.018 4.544,2.868 0,3.29 0,77.233 0,77.233 h -50.94 c 0,0 0,-73.942 0,-77.233 0,-2.868 4.544,-2.868 4.544,-2.868 z"
     stroke-miterlimit="10"
     id="path660_2_" /><rect
     style="fill:#c01b1d"
     height="3.961"
     width="2.342"
     y="55.983002"
     x="184.4771"
     id="rect664_6_" /><rect
     style="fill:#c01b1d"
     height="11.144"
     width="3.4289999"
     y="52.391998"
     x="181.04811"
     id="rect666_6_" /><polygon
     transform="translate(-162.78389,-286.207)"
     style="fill:#c01b1d"
     points="357.284,375.42 359.043,375.42 360.801,375.42 359.922,377.881 359.043,380.342 358.163,377.881 "
     id="polygon668_2_" /><rect
     style="fill:none;stroke:#010202;stroke-miterlimit:10"
     height="21.635"
     width="3.9690001"
     stroke-miterlimit="10"
     y="31.420013"
     x="42.236111"
     id="rect670_6_" /><polygon
     transform="translate(-162.78389,-286.207)"
     style="fill:none;stroke:#020304;stroke-miterlimit:10"
     points="248.348,339.263 250.722,317.939 248.348,296.743 234.283,296.743 217.612,296.743 217.264,296.743 167.074,296.743 165.661,296.743 163.287,318.067 165.661,339.263 166.725,339.263 216.916,339.263 217.264,339.263 233.934,339.263 "
     stroke-miterlimit="10"
     id="polygon672_6_" /><path
     style="fill:none;stroke:#020304;stroke-width:1.04779994;stroke-miterlimit:10"
     d="m 266.25211,89.005 c 0,3.052 2.253,5.526 5.033,5.526 v 0 c 2.78,0 5.033,-2.474 5.033,-5.526 V 19.953 c 0,-3.052 -2.253,-5.526 -5.033,-5.526 v 0 c -2.78,0 -5.033,2.474 -5.033,5.526 z"
     stroke-miterlimit="10"
     id="path674_6_" /><g
     transform="translate(-162.78389,-286.207)"
     id="g676_6_"><rect
       style="fill:#c01b1d"
       height="102.439"
       width="2"
       y="289.45001"
       x="510.371"
       id="rect678_6_" /><g
       id="g680_6_"><polygon
         style="fill:#c01b1d"
         points="514.761,293.415 514.761,290.55 511.37,287.175 507.98,290.55 507.98,293.415 511.37,290.038 "
         id="polygon682_6_" /></g><g
       id="g684_6_"><polygon
         style="fill:#c01b1d"
         points="514.761,387.923 514.761,390.789 511.37,394.164 507.98,390.789 507.98,387.923 511.37,391.3 "
         id="polygon686_6_" /></g></g><path
     style="fill:#c01b1d"
     d="m 416.68111,103.858 h -23.999 c -0.147,0 -0.288,-0.066 -0.383,-0.18 -0.095,-0.114 -0.135,-0.263 -0.109,-0.408 0.003,-0.019 0.312,-1.854 -0.768,-3.142 -0.741,-0.884 -1.981,-1.332 -3.687,-1.332 -0.276,0 -0.5,-0.224 -0.5,-0.5 v -5.062 c 0,-0.276 0.224,-0.5 0.5,-0.5 h 28.945 c 0.276,0 0.5,0.224 0.5,0.5 v 10.123 c 10e-4,0.277 -0.223,0.501 -0.499,0.501 z m -23.45,-1 h 22.95 v -9.123 h -27.945 v 4.073 c 1.769,0.089 3.099,0.654 3.96,1.686 0.961,1.153 1.065,2.577 1.035,3.364 z"
     id="path690_6_" /><path
     style="fill:#c01b1d"
     d="m 416.68111,74.063 h -23.999 c -0.147,0 -0.288,-0.066 -0.383,-0.18 -0.095,-0.114 -0.135,-0.263 -0.109,-0.408 0.003,-0.019 0.312,-1.854 -0.768,-3.142 -0.741,-0.884 -1.981,-1.332 -3.687,-1.332 -0.276,0 -0.5,-0.224 -0.5,-0.5 v -5.062 c 0,-0.276 0.224,-0.5 0.5,-0.5 h 28.945 c 0.276,0 0.5,0.224 0.5,0.5 v 10.124 c 10e-4,0.276 -0.223,0.5 -0.499,0.5 z m -23.45,-1 h 22.95 v -9.124 h -27.945 v 4.074 c 1.769,0.089 3.099,0.654 3.96,1.686 0.961,1.153 1.065,2.577 1.035,3.364 z"
     id="path694_6_" /><path
     style="fill:#c01b1d"
     d="m 416.68111,44.843 h -23.999 c -0.147,0 -0.288,-0.066 -0.383,-0.18 -0.095,-0.114 -0.135,-0.263 -0.109,-0.408 0.003,-0.019 0.312,-1.855 -0.768,-3.143 -0.742,-0.884 -1.982,-1.332 -3.687,-1.332 -0.276,0 -0.5,-0.224 -0.5,-0.5 v -5.062 c 0,-0.276 0.224,-0.5 0.5,-0.5 h 28.945 c 0.276,0 0.5,0.224 0.5,0.5 v 10.124 c 10e-4,0.278 -0.223,0.501 -0.499,0.501 z m -23.45,-1 h 22.95 v -9.124 h -27.945 v 4.073 c 1.769,0.089 3.099,0.654 3.959,1.686 0.962,1.153 1.066,2.578 1.036,3.365 z"
     id="path698_6_" /><path
     style="fill:#c01b1d"
     d="m 416.68111,15.16 h -23.999 c -0.147,0 -0.288,-0.066 -0.383,-0.179 -0.095,-0.113 -0.135,-0.264 -0.109,-0.409 0.003,-0.018 0.312,-1.854 -0.768,-3.141 -0.741,-0.884 -1.981,-1.332 -3.687,-1.332 -0.276,0 -0.5,-0.224 -0.5,-0.5 V 4.537 c 0,-0.276 0.224,-0.5 0.5,-0.5 h 28.945 c 0.276,0 0.5,0.224 0.5,0.5 v 10.124 c 10e-4,0.276 -0.223,0.499 -0.499,0.499 z m -23.45,-1 h 22.95 V 5.036 h -27.945 V 9.11 c 1.769,0.088 3.099,0.654 3.96,1.685 0.961,1.154 1.065,2.579 1.035,3.365 z"
     id="path702_5_" /><g
     transform="translate(-162.78389,-286.207)"
     id="g144"><path
       style="fill:#c01b1d"
       id="path132"
       d="m 592.1,293.914 h -0.017 l -0.903,0.631 c -0.048,0.032 -0.088,0.016 -0.088,-0.048 v -0.592 c 0,-0.048 0.016,-0.08 0.056,-0.112 l 0.936,-0.68 c 0.04,-0.032 0.072,-0.048 0.128,-0.048 h 0.48 c 0.048,0 0.08,0.032 0.08,0.08 v 5.277 c 0,0.049 -0.032,0.08 -0.08,0.08 h -0.512 c -0.049,0 -0.08,-0.031 -0.08,-0.08 z" /><path
       style="fill:#c01b1d"
       id="path134"
       d="m 594.86,296.609 v -0.464 c 0,-0.048 0.032,-0.08 0.08,-0.08 h 2.127 c 0.048,0 0.079,0.032 0.079,0.08 v 0.464 c 0,0.048 -0.031,0.08 -0.079,0.08 h -2.127 c -0.047,0 -0.08,-0.033 -0.08,-0.08 z" /><path
       style="fill:#c01b1d"
       id="path136"
       d="m 599.476,293.914 h -0.017 l -0.903,0.631 c -0.048,0.032 -0.088,0.016 -0.088,-0.048 v -0.592 c 0,-0.048 0.017,-0.08 0.056,-0.112 l 0.936,-0.68 c 0.04,-0.032 0.072,-0.048 0.128,-0.048 h 0.48 c 0.048,0 0.079,0.032 0.079,0.08 v 5.277 c 0,0.049 -0.031,0.08 -0.079,0.08 h -0.512 c -0.048,0 -0.08,-0.031 -0.08,-0.08 z" /><path
       style="fill:#c01b1d"
       id="path138"
       d="m 602.724,295.689 1.384,-2.566 c 0.023,-0.048 0.048,-0.056 0.104,-0.056 h 0.544 c 0.056,0 0.072,0.032 0.048,0.08 l -1.215,2.255 0.016,0.016 c 0.104,-0.072 0.319,-0.128 0.552,-0.128 0.855,0 1.543,0.624 1.543,1.615 0,1.063 -0.728,1.687 -1.671,1.687 -0.951,0 -1.663,-0.623 -1.663,-1.663 -0.002,-0.433 0.15,-0.856 0.358,-1.24 z m 1.303,2.279 c 0.592,0 0.983,-0.424 0.983,-1.031 0,-0.608 -0.392,-1.023 -0.983,-1.023 -0.591,0 -0.976,0.415 -0.976,1.023 10e-4,0.607 0.385,1.031 0.976,1.031 z" /><path
       style="fill:#c01b1d"
       id="path140"
       d="m 611.745,298.503 c -0.048,0 -0.08,-0.031 -0.08,-0.08 v -2.238 c 0,-0.616 -0.279,-0.976 -0.855,-0.976 -0.512,0 -0.879,0.368 -0.879,0.936 v 2.278 c 0,0.049 -0.032,0.08 -0.08,0.08 h -0.512 c -0.048,0 -0.08,-0.031 -0.08,-0.08 v -2.238 c 0,-0.616 -0.28,-0.976 -0.855,-0.976 -0.52,0 -0.88,0.368 -0.88,0.936 v 2.278 c 0,0.049 -0.032,0.08 -0.08,0.08 h -0.512 c -0.048,0 -0.08,-0.031 -0.08,-0.08 v -3.67 c 0,-0.048 0.032,-0.08 0.08,-0.08 h 0.512 c 0.048,0 0.08,0.032 0.08,0.08 v 0.353 h 0.008 c 0.185,-0.296 0.552,-0.521 1.071,-0.521 0.521,0 0.904,0.216 1.12,0.6 h 0.008 c 0.264,-0.368 0.655,-0.6 1.239,-0.6 0.888,0 1.367,0.568 1.367,1.439 v 2.398 c 0,0.049 -0.032,0.08 -0.08,0.08 h -0.512 z" /><path
       style="fill:#c01b1d"
       id="path142"
       d="m 618.505,298.503 c -0.048,0 -0.08,-0.031 -0.08,-0.08 v -2.238 c 0,-0.616 -0.279,-0.976 -0.855,-0.976 -0.512,0 -0.879,0.368 -0.879,0.936 v 2.278 c 0,0.049 -0.032,0.08 -0.08,0.08 h -0.512 c -0.048,0 -0.08,-0.031 -0.08,-0.08 v -2.238 c 0,-0.616 -0.28,-0.976 -0.855,-0.976 -0.52,0 -0.88,0.368 -0.88,0.936 v 2.278 c 0,0.049 -0.032,0.08 -0.08,0.08 h -0.512 c -0.048,0 -0.08,-0.031 -0.08,-0.08 v -3.67 c 0,-0.048 0.032,-0.08 0.08,-0.08 h 0.512 c 0.048,0 0.08,0.032 0.08,0.08 v 0.353 h 0.008 c 0.185,-0.296 0.552,-0.521 1.071,-0.521 0.521,0 0.904,0.216 1.12,0.6 h 0.008 c 0.264,-0.368 0.655,-0.6 1.239,-0.6 0.888,0 1.367,0.568 1.367,1.439 v 2.398 c 0,0.049 -0.032,0.08 -0.08,0.08 h -0.512 z" /></g><g
     transform="translate(-162.78389,-286.207)"
     id="g158"><path
       style="fill:#c01b1d"
       id="path146"
       d="m 591.012,325.086 1.384,-2.566 c 0.023,-0.048 0.048,-0.056 0.104,-0.056 h 0.544 c 0.056,0 0.072,0.032 0.048,0.08 l -1.216,2.255 0.017,0.016 c 0.104,-0.072 0.319,-0.128 0.552,-0.128 0.855,0 1.543,0.624 1.543,1.615 0,1.063 -0.728,1.687 -1.671,1.687 -0.952,0 -1.663,-0.623 -1.663,-1.663 -0.002,-0.432 0.15,-0.856 0.358,-1.24 z m 1.303,2.279 c 0.592,0 0.983,-0.424 0.983,-1.031 0,-0.608 -0.392,-1.023 -0.983,-1.023 -0.591,0 -0.976,0.415 -0.976,1.023 10e-4,0.608 0.385,1.031 0.976,1.031 z" /><path
       style="fill:#c01b1d"
       id="path148"
       d="m 594.86,326.006 v -0.464 c 0,-0.048 0.032,-0.08 0.08,-0.08 h 2.127 c 0.048,0 0.079,0.032 0.079,0.08 v 0.464 c 0,0.048 -0.031,0.08 -0.079,0.08 h -2.127 c -0.047,0 -0.08,-0.032 -0.08,-0.08 z" /><path
       style="fill:#c01b1d"
       id="path150"
       d="m 598.156,327.406 c 0,-0.048 0.008,-0.072 0.04,-0.112 l 1.959,-2.494 c 0.239,-0.305 0.384,-0.601 0.384,-0.944 0,-0.487 -0.328,-0.855 -0.855,-0.855 -0.521,0 -0.808,0.312 -0.888,0.8 -0.008,0.048 -0.04,0.072 -0.088,0.064 l -0.488,-0.104 c -0.048,-0.016 -0.071,-0.048 -0.063,-0.096 0.072,-0.647 0.584,-1.287 1.543,-1.287 0.951,0 1.527,0.64 1.527,1.479 0,0.488 -0.2,0.888 -0.528,1.304 l -1.679,2.11 v 0.009 h 2.127 c 0.048,0 0.08,0.031 0.08,0.08 v 0.463 c 0,0.049 -0.032,0.08 -0.08,0.08 h -2.91 c -0.048,0 -0.08,-0.031 -0.08,-0.08 v -0.417 z" /><path
       style="fill:#c01b1d"
       id="path152"
       d="m 602.284,326.869 v -0.439 c 0,-0.032 0.008,-0.064 0.024,-0.096 l 1.759,-3.807 c 0.023,-0.048 0.056,-0.063 0.111,-0.063 h 0.536 c 0.056,0 0.072,0.032 0.056,0.071 l -1.734,3.782 v 0.017 h 1.438 c 0.032,0 0.048,-0.017 0.048,-0.049 v -1.423 c 0,-0.048 0.032,-0.08 0.08,-0.08 h 0.512 c 0.048,0 0.08,0.032 0.08,0.08 v 1.423 c 0,0.032 0.017,0.049 0.048,0.049 h 0.496 c 0.048,0 0.08,0.031 0.08,0.079 v 0.456 c 0,0.048 -0.032,0.08 -0.08,0.08 h -0.496 c -0.031,0 -0.048,0.016 -0.048,0.048 v 0.823 c 0,0.049 -0.032,0.08 -0.08,0.08 h -0.512 c -0.048,0 -0.08,-0.031 -0.08,-0.08 v -0.823 c 0,-0.032 -0.016,-0.048 -0.048,-0.048 h -2.11 c -0.048,0 -0.08,-0.032 -0.08,-0.08 z" /><path
       style="fill:#c01b1d"
       id="path154"
       d="m 611.745,327.901 c -0.048,0 -0.08,-0.031 -0.08,-0.08 v -2.238 c 0,-0.616 -0.279,-0.976 -0.855,-0.976 -0.512,0 -0.879,0.368 -0.879,0.936 v 2.278 c 0,0.049 -0.032,0.08 -0.08,0.08 h -0.512 c -0.048,0 -0.08,-0.031 -0.08,-0.08 v -2.238 c 0,-0.616 -0.28,-0.976 -0.855,-0.976 -0.52,0 -0.88,0.368 -0.88,0.936 v 2.278 c 0,0.049 -0.032,0.08 -0.08,0.08 h -0.512 c -0.048,0 -0.08,-0.031 -0.08,-0.08 v -3.67 c 0,-0.048 0.032,-0.08 0.08,-0.08 h 0.512 c 0.048,0 0.08,0.032 0.08,0.08 v 0.353 h 0.008 c 0.185,-0.296 0.552,-0.521 1.071,-0.521 0.521,0 0.904,0.216 1.12,0.6 h 0.008 c 0.264,-0.367 0.655,-0.6 1.239,-0.6 0.888,0 1.367,0.568 1.367,1.439 v 2.398 c 0,0.049 -0.032,0.08 -0.08,0.08 h -0.512 z" /><path
       style="fill:#c01b1d"
       id="path156"
       d="m 618.505,327.901 c -0.048,0 -0.08,-0.031 -0.08,-0.08 v -2.238 c 0,-0.616 -0.279,-0.976 -0.855,-0.976 -0.512,0 -0.879,0.368 -0.879,0.936 v 2.278 c 0,0.049 -0.032,0.08 -0.08,0.08 h -0.512 c -0.048,0 -0.08,-0.031 -0.08,-0.08 v -2.238 c 0,-0.616 -0.28,-0.976 -0.855,-0.976 -0.52,0 -0.88,0.368 -0.88,0.936 v 2.278 c 0,0.049 -0.032,0.08 -0.08,0.08 h -0.512 c -0.048,0 -0.08,-0.031 -0.08,-0.08 v -3.67 c 0,-0.048 0.032,-0.08 0.08,-0.08 h 0.512 c 0.048,0 0.08,0.032 0.08,0.08 v 0.353 h 0.008 c 0.185,-0.296 0.552,-0.521 1.071,-0.521 0.521,0 0.904,0.216 1.12,0.6 h 0.008 c 0.264,-0.367 0.655,-0.6 1.239,-0.6 0.888,0 1.367,0.568 1.367,1.439 v 2.398 c 0,0.049 -0.032,0.08 -0.08,0.08 h -0.512 z" /></g><g
     transform="translate(-162.78389,-286.207)"
     id="g174"><path
       style="fill:#c01b1d"
       id="path160"
       d="m 587.609,352.54 h -0.017 l -0.903,0.631 c -0.048,0.032 -0.088,0.017 -0.088,-0.048 v -0.592 c 0,-0.048 0.016,-0.079 0.056,-0.111 l 0.936,-0.68 c 0.04,-0.032 0.072,-0.048 0.128,-0.048 h 0.48 c 0.048,0 0.08,0.032 0.08,0.08 v 5.276 c 0,0.049 -0.032,0.08 -0.08,0.08 h -0.512 c -0.049,0 -0.08,-0.031 -0.08,-0.08 z" /><path
       style="fill:#c01b1d"
       id="path162"
       d="m 590.626,356.634 c 0,-0.048 0.008,-0.072 0.04,-0.112 l 1.959,-2.494 c 0.239,-0.305 0.384,-0.601 0.384,-0.944 0,-0.487 -0.328,-0.855 -0.855,-0.855 -0.521,0 -0.808,0.312 -0.888,0.8 -0.008,0.048 -0.04,0.072 -0.088,0.064 l -0.488,-0.104 c -0.048,-0.016 -0.071,-0.048 -0.063,-0.096 0.071,-0.647 0.583,-1.287 1.543,-1.287 0.951,0 1.527,0.64 1.527,1.479 0,0.488 -0.2,0.888 -0.528,1.304 l -1.679,2.11 v 0.009 h 2.127 c 0.048,0 0.08,0.031 0.08,0.08 v 0.463 c 0,0.049 -0.032,0.08 -0.08,0.08 h -2.91 c -0.048,0 -0.08,-0.031 -0.08,-0.08 v -0.417 z" /><path
       style="fill:#c01b1d"
       id="path164"
       d="m 594.706,355.235 v -0.464 c 0,-0.048 0.032,-0.08 0.08,-0.08 h 2.127 c 0.048,0 0.079,0.032 0.079,0.08 v 0.464 c 0,0.048 -0.031,0.08 -0.079,0.08 h -2.127 c -0.048,0 -0.08,-0.033 -0.08,-0.08 z" /><path
       style="fill:#c01b1d"
       id="path166"
       d="m 597.97,355.97 0.487,-0.12 c 0.049,-0.016 0.08,0.008 0.097,0.057 0.111,0.344 0.392,0.688 0.967,0.688 0.584,0 0.936,-0.408 0.936,-0.96 0,-0.607 -0.392,-1.007 -0.999,-1.007 h -0.24 c -0.048,0 -0.08,-0.032 -0.08,-0.08 v -0.464 c 0,-0.048 0.032,-0.08 0.08,-0.08 h 0.232 c 0.543,0 0.903,-0.359 0.903,-0.911 0,-0.504 -0.328,-0.864 -0.872,-0.864 -0.503,0 -0.768,0.296 -0.863,0.664 -0.016,0.048 -0.048,0.072 -0.096,0.063 l -0.479,-0.119 c -0.048,-0.009 -0.072,-0.049 -0.064,-0.097 0.112,-0.607 0.656,-1.135 1.527,-1.135 0.96,0 1.535,0.615 1.535,1.471 0,0.544 -0.296,0.936 -0.672,1.168 v 0.016 c 0.336,0.144 0.776,0.607 0.776,1.352 0,0.951 -0.68,1.606 -1.624,1.606 -0.879,0 -1.463,-0.487 -1.614,-1.151 -0.009,-0.049 0.015,-0.081 0.063,-0.097 z" /><path
       style="fill:#c01b1d"
       id="path168"
       d="m 602.266,354.411 c 0,-1.279 0.056,-1.567 0.12,-1.775 0.216,-0.664 0.735,-1.031 1.487,-1.031 0.751,0 1.271,0.367 1.487,1.031 0.063,0.208 0.12,0.496 0.12,1.775 0,1.279 -0.057,1.566 -0.12,1.774 -0.216,0.664 -0.736,1.031 -1.487,1.031 -0.752,0 -1.271,-0.367 -1.487,-1.031 -0.065,-0.207 -0.12,-0.494 -0.12,-1.774 z m 1.607,2.183 c 0.399,0 0.695,-0.185 0.823,-0.544 0.056,-0.168 0.088,-0.399 0.088,-1.639 0,-1.24 -0.032,-1.472 -0.088,-1.64 -0.128,-0.359 -0.424,-0.544 -0.823,-0.544 -0.4,0 -0.695,0.185 -0.824,0.544 -0.056,0.168 -0.088,0.399 -0.088,1.64 0,1.239 0.032,1.471 0.088,1.639 0.129,0.359 0.424,0.544 0.824,0.544 z" /><path
       style="fill:#c01b1d"
       id="path170"
       d="m 611.591,357.129 c -0.048,0 -0.08,-0.031 -0.08,-0.08 v -2.238 c 0,-0.616 -0.279,-0.976 -0.855,-0.976 -0.512,0 -0.879,0.368 -0.879,0.936 v 2.278 c 0,0.049 -0.032,0.08 -0.08,0.08 h -0.512 c -0.048,0 -0.08,-0.031 -0.08,-0.08 v -2.238 c 0,-0.616 -0.28,-0.976 -0.855,-0.976 -0.52,0 -0.88,0.368 -0.88,0.936 v 2.278 c 0,0.049 -0.032,0.08 -0.08,0.08 h -0.512 c -0.048,0 -0.08,-0.031 -0.08,-0.08 v -3.67 c 0,-0.048 0.032,-0.08 0.08,-0.08 h 0.512 c 0.048,0 0.08,0.032 0.08,0.08 v 0.353 h 0.008 c 0.185,-0.296 0.552,-0.521 1.071,-0.521 0.521,0 0.904,0.216 1.12,0.6 h 0.008 c 0.264,-0.367 0.655,-0.6 1.239,-0.6 0.888,0 1.367,0.568 1.367,1.439 v 2.398 c 0,0.049 -0.032,0.08 -0.08,0.08 h -0.512 z" /><path
       style="fill:#c01b1d"
       id="path172"
       d="m 618.351,357.129 c -0.048,0 -0.08,-0.031 -0.08,-0.08 v -2.238 c 0,-0.616 -0.279,-0.976 -0.855,-0.976 -0.512,0 -0.879,0.368 -0.879,0.936 v 2.278 c 0,0.049 -0.032,0.08 -0.08,0.08 h -0.512 c -0.048,0 -0.08,-0.031 -0.08,-0.08 v -2.238 c 0,-0.616 -0.28,-0.976 -0.855,-0.976 -0.52,0 -0.88,0.368 -0.88,0.936 v 2.278 c 0,0.049 -0.032,0.08 -0.08,0.08 h -0.512 c -0.048,0 -0.08,-0.031 -0.08,-0.08 v -3.67 c 0,-0.048 0.032,-0.08 0.08,-0.08 h 0.512 c 0.048,0 0.08,0.032 0.08,0.08 v 0.353 h 0.008 c 0.185,-0.296 0.552,-0.521 1.071,-0.521 0.521,0 0.904,0.216 1.12,0.6 h 0.008 c 0.264,-0.367 0.655,-0.6 1.239,-0.6 0.888,0 1.367,0.568 1.367,1.439 v 2.398 c 0,0.049 -0.032,0.08 -0.08,0.08 h -0.512 z" /></g><g
     transform="translate(-162.78389,-286.207)"
     id="g190"><path
       style="fill:#c01b1d"
       id="path176"
       d="m 586.29,386.146 c 0,-0.048 0.008,-0.072 0.04,-0.112 l 1.959,-2.494 c 0.239,-0.305 0.384,-0.601 0.384,-0.944 0,-0.487 -0.328,-0.855 -0.855,-0.855 -0.521,0 -0.808,0.312 -0.888,0.8 -0.008,0.048 -0.04,0.072 -0.088,0.064 l -0.488,-0.104 c -0.048,-0.016 -0.071,-0.048 -0.063,-0.096 0.071,-0.647 0.583,-1.287 1.543,-1.287 0.951,0 1.527,0.64 1.527,1.479 0,0.488 -0.2,0.888 -0.528,1.304 l -1.679,2.11 v 0.009 h 2.127 c 0.048,0 0.08,0.031 0.08,0.08 v 0.463 c 0,0.049 -0.032,0.08 -0.08,0.08 h -2.91 c -0.048,0 -0.08,-0.031 -0.08,-0.08 v -0.417 z" /><path
       style="fill:#c01b1d"
       id="path178"
       d="m 590.554,383.923 c 0,-1.279 0.056,-1.567 0.12,-1.775 0.216,-0.664 0.735,-1.031 1.487,-1.031 0.751,0 1.271,0.367 1.487,1.031 0.063,0.208 0.119,0.496 0.119,1.775 0,1.279 -0.056,1.566 -0.119,1.774 -0.216,0.664 -0.736,1.031 -1.487,1.031 -0.752,0 -1.271,-0.367 -1.487,-1.031 -0.065,-0.207 -0.12,-0.495 -0.12,-1.774 z m 1.607,2.183 c 0.399,0 0.695,-0.185 0.823,-0.544 0.056,-0.168 0.088,-0.399 0.088,-1.639 0,-1.24 -0.032,-1.472 -0.088,-1.64 -0.128,-0.359 -0.424,-0.544 -0.823,-0.544 -0.4,0 -0.696,0.185 -0.823,0.544 -0.057,0.168 -0.089,0.399 -0.089,1.64 0,1.239 0.032,1.471 0.089,1.639 0.127,0.359 0.423,0.544 0.823,0.544 z" /><path
       style="fill:#c01b1d"
       id="path180"
       d="m 594.706,384.746 v -0.464 c 0,-0.048 0.032,-0.08 0.08,-0.08 h 2.127 c 0.048,0 0.079,0.032 0.079,0.08 v 0.464 c 0,0.048 -0.031,0.08 -0.079,0.08 h -2.127 c -0.048,0 -0.08,-0.032 -0.08,-0.08 z" /><path
       style="fill:#c01b1d"
       id="path182"
       d="m 597.97,385.482 0.487,-0.12 c 0.049,-0.016 0.08,0.008 0.097,0.057 0.111,0.344 0.392,0.688 0.967,0.688 0.584,0 0.936,-0.408 0.936,-0.96 0,-0.607 -0.392,-1.007 -0.999,-1.007 h -0.24 c -0.048,0 -0.08,-0.032 -0.08,-0.08 v -0.464 c 0,-0.048 0.032,-0.08 0.08,-0.08 h 0.232 c 0.543,0 0.903,-0.359 0.903,-0.911 0,-0.504 -0.328,-0.864 -0.872,-0.864 -0.503,0 -0.768,0.296 -0.863,0.664 -0.016,0.048 -0.048,0.072 -0.096,0.063 l -0.479,-0.119 c -0.048,-0.009 -0.072,-0.049 -0.064,-0.097 0.112,-0.607 0.656,-1.135 1.527,-1.135 0.96,0 1.535,0.615 1.535,1.471 0,0.544 -0.296,0.936 -0.672,1.168 v 0.016 c 0.336,0.144 0.776,0.607 0.776,1.352 0,0.951 -0.68,1.606 -1.624,1.606 -0.879,0 -1.463,-0.487 -1.614,-1.151 -0.009,-0.049 0.015,-0.082 0.063,-0.097 z" /><path
       style="fill:#c01b1d"
       id="path184"
       d="m 602.961,383.786 v -0.016 c -0.344,-0.192 -0.64,-0.607 -0.64,-1.151 0,-0.815 0.584,-1.503 1.552,-1.503 0.976,0 1.551,0.688 1.551,1.503 0,0.544 -0.296,0.959 -0.64,1.151 v 0.016 c 0.432,0.232 0.768,0.704 0.768,1.344 0,0.951 -0.688,1.599 -1.679,1.599 -0.991,0 -1.68,-0.647 -1.68,-1.599 0,-0.64 0.336,-1.111 0.768,-1.344 z m 0.912,2.32 c 0.6,0 0.991,-0.424 0.991,-1.008 0,-0.575 -0.392,-0.999 -0.991,-0.999 -0.599,0 -0.991,0.424 -0.991,0.999 0,0.584 0.399,1.008 0.991,1.008 z m 0.863,-3.502 c 0,-0.48 -0.344,-0.864 -0.863,-0.864 -0.519,0 -0.863,0.384 -0.863,0.864 0,0.479 0.335,0.871 0.863,0.871 0.527,0 0.863,-0.392 0.863,-0.871 z" /><path
       style="fill:#c01b1d"
       id="path186"
       d="m 611.591,386.641 c -0.048,0 -0.08,-0.031 -0.08,-0.08 v -2.238 c 0,-0.616 -0.279,-0.976 -0.855,-0.976 -0.512,0 -0.879,0.368 -0.879,0.936 v 2.278 c 0,0.049 -0.032,0.08 -0.08,0.08 h -0.512 c -0.048,0 -0.08,-0.031 -0.08,-0.08 v -2.238 c 0,-0.616 -0.28,-0.976 -0.855,-0.976 -0.52,0 -0.88,0.368 -0.88,0.936 v 2.278 c 0,0.049 -0.032,0.08 -0.08,0.08 h -0.512 c -0.048,0 -0.08,-0.031 -0.08,-0.08 v -3.67 c 0,-0.048 0.032,-0.08 0.08,-0.08 h 0.512 c 0.048,0 0.08,0.032 0.08,0.08 v 0.353 h 0.008 c 0.185,-0.296 0.552,-0.521 1.071,-0.521 0.521,0 0.904,0.216 1.12,0.6 h 0.008 c 0.264,-0.367 0.655,-0.6 1.239,-0.6 0.888,0 1.367,0.568 1.367,1.439 v 2.398 c 0,0.049 -0.032,0.08 -0.08,0.08 h -0.512 z" /><path
       style="fill:#c01b1d"
       id="path188"
       d="m 618.351,386.641 c -0.048,0 -0.08,-0.031 -0.08,-0.08 v -2.238 c 0,-0.616 -0.279,-0.976 -0.855,-0.976 -0.512,0 -0.879,0.368 -0.879,0.936 v 2.278 c 0,0.049 -0.032,0.08 -0.08,0.08 h -0.512 c -0.048,0 -0.08,-0.031 -0.08,-0.08 v -2.238 c 0,-0.616 -0.28,-0.976 -0.855,-0.976 -0.52,0 -0.88,0.368 -0.88,0.936 v 2.278 c 0,0.049 -0.032,0.08 -0.08,0.08 h -0.512 c -0.048,0 -0.08,-0.031 -0.08,-0.08 v -3.67 c 0,-0.048 0.032,-0.08 0.08,-0.08 h 0.512 c 0.048,0 0.08,0.032 0.08,0.08 v 0.353 h 0.008 c 0.185,-0.296 0.552,-0.521 1.071,-0.521 0.521,0 0.904,0.216 1.12,0.6 h 0.008 c 0.264,-0.367 0.655,-0.6 1.239,-0.6 0.888,0 1.367,0.568 1.367,1.439 v 2.398 c 0,0.049 -0.032,0.08 -0.08,0.08 h -0.512 z" /></g><path
     style="fill:#c01b1d"
     id="path192"
     d="m 474.32511,4.036 h -30.253 v 1.001 h 29.753 v 4.074 c -1.769,0.088 -3.099,0.654 -3.96,1.685 -0.962,1.153 -1.066,2.577 -1.036,3.364 h -24.757 v 1 h 25.306 c 0.148,0 0.288,-0.065 0.382,-0.179 0.094,-0.114 0.134,-0.263 0.109,-0.409 -0.002,-0.019 -0.311,-1.855 0.769,-3.142 0.742,-0.884 1.982,-1.332 3.687,-1.332 0.276,0 0.5,-0.224 0.5,-0.5 V 4.536 c 0,-0.276 -0.224,-0.5 -0.5,-0.5 z" /><path
     style="fill:#c01b1d"
     id="path194"
     d="m 474.32511,33.718 h -30.253 v 1.001 h 29.753 v 4.074 c -1.769,0.088 -3.099,0.654 -3.96,1.685 -0.962,1.153 -1.066,2.577 -1.036,3.364 h -24.757 v 1 h 25.306 c 0.148,0 0.288,-0.065 0.382,-0.179 0.094,-0.114 0.134,-0.263 0.109,-0.409 -0.002,-0.019 -0.311,-1.855 0.769,-3.142 0.742,-0.884 1.982,-1.332 3.687,-1.332 0.276,0 0.5,-0.224 0.5,-0.5 v -5.062 c 0,-0.276 -0.224,-0.5 -0.5,-0.5 z" /><path
     style="fill:#c01b1d"
     id="path196"
     d="m 474.32511,62.939 h -30.253 v 1.001 h 29.753 v 4.074 c -1.769,0.088 -3.099,0.654 -3.96,1.685 -0.962,1.153 -1.066,2.577 -1.036,3.364 h -24.757 v 1 h 25.306 c 0.148,0 0.288,-0.065 0.382,-0.179 0.094,-0.114 0.134,-0.263 0.109,-0.409 -0.002,-0.019 -0.311,-1.855 0.769,-3.142 0.742,-0.884 1.982,-1.332 3.687,-1.332 0.276,0 0.5,-0.224 0.5,-0.5 v -5.062 c 0,-0.276 -0.224,-0.5 -0.5,-0.5 z" /><path
     style="fill:#c01b1d"
     id="path198"
     d="m 474.32511,92.734 h -30.253 v 1.001 h 29.753 v 4.074 c -1.769,0.088 -3.099,0.654 -3.96,1.685 -0.962,1.153 -1.066,2.577 -1.036,3.364 h -24.757 v 1 h 25.306 c 0.148,0 0.288,-0.065 0.382,-0.179 0.094,-0.114 0.134,-0.263 0.109,-0.409 -0.002,-0.019 -0.311,-1.855 0.769,-3.142 0.742,-0.884 1.982,-1.332 3.687,-1.332 0.276,0 0.5,-0.224 0.5,-0.5 v -5.062 c 0,-0.276 -0.224,-0.5 -0.5,-0.5 z" /><line
     style="fill:none;stroke:#c01b1d;stroke-width:0.79360002;stroke-miterlimit:10"
     id="line200"
     y2="21.824005"
     x2="237.75911"
     y1="21.824005"
     x1="186.81911"
     stroke-miterlimit="10" /></svg>