<?xml version="1.0" encoding="UTF-8" standalone="no"?>
<!-- Created with Inkscape (http://www.inkscape.org/) -->

<svg
   xmlns:dc="http://purl.org/dc/elements/1.1/"
   xmlns:cc="http://creativecommons.org/ns#"
   xmlns:rdf="http://www.w3.org/1999/02/22-rdf-syntax-ns#"
   xmlns:svg="http://www.w3.org/2000/svg"
   xmlns="http://www.w3.org/2000/svg"
   xmlns:sodipodi="http://sodipodi.sourceforge.net/DTD/sodipodi-0.dtd"
   xmlns:inkscape="http://www.inkscape.org/namespaces/inkscape"
   width="143.40587mm"
   height="90.035744mm"
   viewBox="0 0 508.13102 319.02428"
   id="svg2"
   version="1.1"
   inkscape:version="0.92.2 (unknown)"
   sodipodi:docname="mrbeam_logo_only.svg">
  <defs
     id="defs4" />
  <sodipodi:namedview
     id="base"
     pagecolor="#ffffff"
     bordercolor="#666666"
     borderopacity="1.0"
     inkscape:pageopacity="0.0"
     inkscape:pageshadow="2"
     inkscape:zoom="0.9899495"
     inkscape:cx="274.97128"
     inkscape:cy="175.148"
     inkscape:document-units="px"
     inkscape:current-layer="layer1"
     showgrid="true"
     inkscape:window-width="1920"
     inkscape:window-height="1034"
     inkscape:window-x="1600"
     inkscape:window-y="0"
     inkscape:window-maximized="1"
     fit-margin-top="0"
     fit-margin-left="0"
     fit-margin-right="0"
     fit-margin-bottom="0">
    <inkscape:grid
       type="xygrid"
       id="grid4136"
       units="mm"
       spacingx="35.43307"
       spacingy="35.433069"
       originx="-459.95319"
       originy="-644.62257" />
  </sodipodi:namedview>
  <metadata
     id="metadata7">
    <rdf:RDF>
      <cc:Work
         rdf:about="">
        <dc:format>image/svg+xml</dc:format>
        <dc:type
           rdf:resource="http://purl.org/dc/dcmitype/StillImage" />
        <dc:title></dc:title>
      </cc:Work>
    </rdf:RDF>
  </metadata>
  <g
     inkscape:label="Layer 1"
     inkscape:groupmode="layer"
     id="layer1"
     transform="translate(-459.95313,-88.715289)">
    <g
       id="g4552"
       transform="matrix(4.0871208,0,0,4.0871208,-2730.1743,-1166.7523)">
      <path
         d="m 843.58419,372.038 c 0.517,2.972 8.039,4.327 11.236,6.846 3.596,2.827 7.494,5.038 12.917,6.329 -0.975,-1.107 -0.748,-1.874 -0.646,-2.454 9.688,2.068 13.817,-2.454 13.175,-2.583 -1.209,0.38 -1.681,0.162 -2.066,0 1.679,-1.292 2.97,-6.459 2.452,-11.882 -2.322,5.294 -6.201,5.94 -9.171,4.905 -2.97,-1.031 -8.005,-10.977 -10.46,-13.43 1.139,-0.119 2.515,0.174 3.231,0.517 -1.163,-2.068 -4.651,-2.714 -10.073,-1.937 0.643,-0.904 1.806,-2.066 4.646,-2.842 -9.814,-0.518 -13.817,7.103 -16.141,11.753 h -0.273 c -2.327,-4.65 -6.329,-12.269 -16.145,-11.753 2.841,0.776 4.003,1.939 4.65,2.842 -5.425,-0.777 -8.916,-0.131 -10.073,1.937 0.713,-0.343 2.092,-0.636 3.228,-0.517 -2.454,2.454 -7.49,12.397 -10.46,13.43 -2.97,1.035 -6.847,0.39 -9.171,-4.905 -0.517,5.424 0.776,10.59 2.454,11.882 -0.385,0.162 -0.859,0.38 -2.068,0 -0.646,0.128 3.488,4.651 13.175,2.583 0.107,0.581 0.332,1.347 -0.644,2.454 5.424,-1.291 9.323,-3.502 12.916,-6.329 3.197,-2.518 10.571,-3.79 11.236,-6.846 0.73,-0.806 1.453,-0.693 2.075,0 z"
         inkscape:connector-curvature="0"
         id="path3572_10_"
         style="stroke:#000000;stroke-width:0.02293791;stroke-miterlimit:4;stroke-dasharray:none;stroke-opacity:1" />
      <path
         id="path4490"
         d="m 903.65119,307.188 v 0 c -7.651,0 -49.712,0 -50.99,0 -1.408,0 -3.564,1.076 -4.235,1.886 -0.674,0.81 -2.397,3.13 -2.397,3.13 h -6.67 c 0,0 -1.729,-2.321 -2.401,-3.13 -0.67,-0.812 -2.823,-1.886 -4.232,-1.886 -1.289,0 -43.781,0 -51.111,0 -0.692,0 -1.072,0.529 -1.072,1.061 0,0.534 0,4.109 0,4.445 0,0.339 0.191,0.992 0.479,1.142 0.789,0.409 2.302,1.199 2.6,1.355 0.406,0.211 1.146,1.388 1.299,1.998 0.153,0.61 5.94,23.524 6.259,24.784 0.373,1.482 1.683,2.68 3.355,2.68 7.705,0 29.481,0 31.06,0 1.922,0 4.056,-1.171 5.014,-2.9 0.96,-1.734 10.453,-18.875 10.453,-18.875 h 3.257 c 0,0 9.493,17.142 10.453,18.875 0.96,1.731 3.093,2.9 5.014,2.9 1.579,0 23.357,0 31.064,0 1.669,0 2.98,-1.199 3.354,-2.68 0.317,-1.245 4.786,-18.956 6.211,-24.595 0.269,-1.074 1.083,-2.049 1.785,-2.416 0.437,-0.227 1.349,-0.702 1.98,-1.031 0.385,-0.2 0.665,-0.621 0.665,-1.183 0,-0.563 0,-4.17 0,-4.602 -0.003,-0.429 -0.425,-0.958 -1.194,-0.958 z m -70.696,8.397 v 0 l -4.684,20.336 c -0.558,2.421 -3.045,4.401 -5.529,4.401 h -23.001 c -2.484,0 -4.842,-2.007 -5.241,-4.459 l -3.28,-20.218 c -0.399,-2.452 1.309,-4.459 3.794,-4.459 h 34.443 c 2.479,-10e-4 4.056,1.978 3.498,4.399 z m 62.097,0.058 -3.28,20.218 c -0.399,2.452 -2.757,4.459 -5.24,4.459 h -23.002 c -2.484,0 -4.972,-1.98 -5.529,-4.401 l -4.687,-20.336 c -0.556,-2.421 1.02,-4.401 3.504,-4.401 h 34.445 c 2.48,0.003 4.185,2.009 3.789,4.461 z"
         inkscape:connector-curvature="0"
         style="stroke:#000000;stroke-width:0.02293791;stroke-miterlimit:4;stroke-dasharray:none;stroke-opacity:1" />
    </g>
  </g>
</svg>
