<?xml version="1.0" encoding="UTF-8" standalone="no"?>
<svg
   xmlns:dc="http://purl.org/dc/elements/1.1/"
   xmlns:cc="http://creativecommons.org/ns#"
   xmlns:rdf="http://www.w3.org/1999/02/22-rdf-syntax-ns#"
   xmlns:svg="http://www.w3.org/2000/svg"
   xmlns="http://www.w3.org/2000/svg"
   version="1.1"
   id="Ebene_1"
   x="0px"
   y="0px"
   width="81.311996"
   height="51.039352"
   viewBox="0 0 81.311992 51.039351"
   enable-background="new 0 0 138.945 125.424"
   xml:space="preserve"><metadata
     id="metadata10"><rdf:RDF><cc:Work
         rdf:about=""><dc:format>image/svg+xml</dc:format><dc:type
           rdf:resource="http://purl.org/dc/dcmitype/StillImage" /><dc:title></dc:title></cc:Work></rdf:RDF></metadata><defs
     id="defs8" /><path
     id="path3572_11_"
     d="m 41.2375,42.4205 c 0.338,1.944 5.259,2.831 7.35,4.478 2.352,1.849 4.902,3.296 8.449,4.14 -0.638,-0.724 -0.49,-1.226 -0.423,-1.605 6.337,1.353 9.038,-1.605 8.618,-1.69 -0.791,0.249 -1.1,0.106 -1.352,0 1.099,-0.845 1.943,-4.225 1.604,-7.772 -1.519,3.463 -4.056,3.886 -5.999,3.209 -1.943,-0.675 -5.236,-7.18 -6.842,-8.785 0.745,-0.078 1.645,0.114 2.113,0.338 -0.761,-1.353 -3.043,-1.776 -6.589,-1.267 0.42,-0.591 1.181,-1.352 3.039,-1.859 -6.42,-0.339 -9.038,4.646 -10.559,7.688 h -0.178 c -1.522,-3.041 -4.14,-8.026 -10.561,-7.688 1.858,0.507 2.619,1.268 3.041,1.859 -3.549,-0.509 -5.832,-0.086 -6.589,1.267 0.466,-0.224 1.368,-0.416 2.111,-0.338 -1.605,1.605 -4.899,8.109 -6.842,8.785 -1.943,0.677 -4.479,0.255 -5.999,-3.209 -0.338,3.548 0.507,6.927 1.605,7.772 -0.252,0.106 -0.562,0.249 -1.353,0 -0.423,0.084 2.282,3.043 8.618,1.69 0.07,0.38 0.217,0.881 -0.422,1.605 3.548,-0.844 6.098,-2.291 8.448,-4.14 2.091,-1.647 6.915,-2.479 7.35,-4.478 0.482,-0.527 0.955,-0.453 1.362,0 z"
     style="fill:#000000;stroke:#000000;stroke-width:0.001;stroke-miterlimit:4;stroke-dasharray:none;stroke-opacity:1" /><path
     d="m 80.5285,5.0000002e-4 v 0 c -5.004,0 -32.518,0 -33.354,0 -0.921,0 -2.331,0.70399999998 -2.77,1.23399999998 -0.441,0.53 -1.568,2.048 -1.568,2.048 h -4.363 c 0,0 -1.131,-1.518 -1.57,-2.048 -0.438,-0.531 -1.847,-1.23399999998 -2.768,-1.23399999998 -0.843,0 -28.639,0 -33.433,0 C 0.2495,5.0000002e-4 5.0000002e-4,0.3465 5.0000002e-4,0.6945 c 0,0.349 0,2.688 0,2.908 0,0.222 0.12499999998,0.649 0.31299999998,0.747 0.516,0.268 1.506,0.784 1.701,0.887 0.265,0.138 0.749,0.908 0.85,1.307 0.1,0.399 3.886,15.388 4.094,16.212 0.244,0.969 1.101,1.753 2.195,1.753 5.04,0 19.285,0 20.317,0 1.257,0 2.653,-0.766 3.28,-1.897 0.628,-1.134 6.838,-12.346 6.838,-12.346 h 2.13 c 0,0 6.21,11.213 6.838,12.346 0.628,1.132 2.023,1.897 3.28,1.897 1.033,0 15.278,0 20.32,0 1.092,0 1.95,-0.784 2.194,-1.753 0.207,-0.814 3.131,-12.4 4.063,-16.088 0.176,-0.703 0.708,-1.341 1.168,-1.58 0.286,-0.148 0.882,-0.459 1.295,-0.675 0.252,-0.131 0.435,-0.406 0.435,-0.774 0,-0.368 0,-2.728 0,-3.01 -0.003,-0.282 -0.28,-0.62799999998 -0.783,-0.62799999998 z M 34.2855,5.4935 v 0 l -3.064,13.302 c -0.365,1.584 -1.992,2.879 -3.617,2.879 h -15.045 c -1.625,0 -3.167,-1.313 -3.428,-2.916 L 6.9855,5.5335 c -0.261,-1.604 0.857,-2.916 2.482,-2.916 h 22.53 c 1.621,-0.002 2.652,1.292 2.288,2.876 z m 40.619,0.038 -2.146,13.225 c -0.261,1.604 -1.803,2.916 -3.427,2.916 h -15.047 c -1.625,0 -3.252,-1.295 -3.617,-2.879 l -3.066,-13.302 c -0.364,-1.584 0.667,-2.879 2.292,-2.879 h 22.531 c 1.623,0.002 2.738,1.315 2.48,2.919 z"
     id="path3"
     style="fill:#000000;stroke:#000000;stroke-width:0.001;stroke-miterlimit:4;stroke-dasharray:none;stroke-opacity:1" /></svg>