<?xml version="1.0" encoding="utf-8"?>
<!-- Generator: Adobe Illustrator 17.0.0, SVG Export Plug-In . SVG Version: 6.00 Build 0)  -->
<!DOCTYPE svg PUBLIC "-//W3C//DTD SVG 1.1//EN" "http://www.w3.org/Graphics/SVG/1.1/DTD/svg11.dtd">
<svg version="1.1" id="Ebene_1" xmlns="http://www.w3.org/2000/svg" xmlns:xlink="http://www.w3.org/1999/xlink" x="0px" y="0px"
	 width="669.002px" height="196.098px" viewBox="0 0 669.002 196.098" enable-background="new 0 0 669.002 196.098"
	 xml:space="preserve">
<g>
	<path d="M393.439,138.868h-3.399c-0.869,0-1.243,0.495-1.243,1.122c0,0.605,0.385,1.155,1.188,1.155h3.454v1.122h-3.399
		c-0.869,0-1.243,0.495-1.243,1.123c0,0.627,0.385,1.154,1.243,1.154h3.399v1.122h-5.578v-1.1h0.562
		c-0.407-0.374-0.627-0.924-0.627-1.485c0-0.693,0.274-1.232,0.813-1.584c-0.55-0.451-0.813-1.013-0.813-1.749
		c0-0.572,0.187-1.078,0.506-1.408c0.418-0.43,0.946-0.595,1.573-0.595h3.564V138.868z"/>
	<path d="M393.439,133.017h-0.506c0.407,0.407,0.572,0.792,0.572,1.485s-0.165,1.155-0.507,1.496
		c-0.297,0.286-0.726,0.44-1.199,0.44c-0.935,0-1.605-0.649-1.605-1.937v-1.463h-0.396c-0.715,0-1.045,0.341-1.045,1.221
		c0,0.594,0.154,0.902,0.55,1.221l-0.693,0.727c-0.615-0.517-0.813-1.057-0.813-1.991c0-1.54,0.66-2.3,1.914-2.3h3.729V133.017z
		 M390.974,133.039v1.287c0,0.682,0.286,1.022,0.804,1.022c0.517,0,0.792-0.318,0.792-1.056c0-0.396-0.044-0.715-0.319-1.013
		c-0.165-0.176-0.429-0.241-0.825-0.241H390.974z"/>
	<path d="M393.439,127.197l-1.903,1.166l1.903,1.177v1.354l-2.85-1.914l-2.729,1.837v-1.353l1.815-1.101l-1.815-1.089v-1.354
		l2.729,1.826l2.85-1.903V127.197z"/>
	<path d="M393.439,124.744h-1.342v-1.342h1.342V124.744z"/>
	<path d="M392.846,115.284c0.374,0.363,0.66,0.913,0.66,1.673c0,0.759-0.286,1.298-0.66,1.661c-0.551,0.528-1.255,0.66-2.2,0.66
		c-0.936,0-1.64-0.132-2.189-0.66c-0.374-0.363-0.66-0.902-0.66-1.661c0-0.76,0.286-1.31,0.66-1.673
		c0.55-0.527,1.254-0.659,2.189-0.659C391.591,114.625,392.295,114.757,392.846,115.284z M389.116,116.132
		c-0.209,0.209-0.319,0.495-0.319,0.825s0.11,0.604,0.319,0.813c0.341,0.342,0.924,0.386,1.529,0.386
		c0.604,0,1.188-0.044,1.528-0.386c0.209-0.209,0.33-0.483,0.33-0.813s-0.121-0.616-0.33-0.825
		c-0.341-0.341-0.924-0.385-1.528-0.385C390.04,115.747,389.457,115.791,389.116,116.132z"/>
	<path d="M393.011,109.168c0.308,0.309,0.495,0.804,0.495,1.364c0,0.595-0.154,1.057-0.66,1.475h0.594v1.1h-7.833v-1.122h2.816
		c-0.484-0.406-0.627-0.869-0.627-1.463c0-0.561,0.187-1.045,0.495-1.354c0.55-0.539,1.44-0.627,2.354-0.627
		C391.569,108.541,392.46,108.629,393.011,109.168z M388.797,110.819c0,1.023,0.858,1.166,1.849,1.166
		c0.989,0,1.858-0.143,1.858-1.166c0-1.012-0.869-1.155-1.858-1.155C389.655,109.663,388.797,109.807,388.797,110.819z"/>
	<path d="M395.717,107.431v0.693h-0.957v-0.495c0-0.451-0.22-0.605-0.649-0.605h-6.249v-1.122h6.315
		C395.002,105.902,395.717,106.364,395.717,107.431z M386.762,107.057h-1.188v-1.188h1.188V107.057z"/>
	<path d="M390.974,103.295c0.969,0,1.562-0.495,1.562-1.42c0-0.627-0.176-0.957-0.572-1.353l0.672-0.716
		c0.571,0.572,0.869,1.111,0.869,2.091c0,1.397-0.737,2.508-2.86,2.508c-1.815,0-2.85-0.935-2.85-2.365
		c0-1.496,1.078-2.365,2.706-2.365h0.473V103.295z M389.434,100.941c-0.418,0.187-0.704,0.572-0.704,1.1
		c0,0.539,0.286,0.925,0.704,1.111c0.242,0.11,0.418,0.132,0.76,0.144v-2.509C389.852,100.809,389.677,100.83,389.434,100.941z"/>
	<path d="M393.506,95.99c0,1.255-0.771,2.486-2.86,2.486c-2.091,0-2.85-1.231-2.85-2.486c0-0.77,0.22-1.309,0.781-1.837l0.748,0.771
		c-0.386,0.352-0.528,0.627-0.528,1.066c0,0.43,0.176,0.792,0.495,1.034c0.308,0.242,0.704,0.33,1.354,0.33
		c0.648,0,1.056-0.088,1.363-0.33c0.319-0.242,0.495-0.604,0.495-1.034c0-0.439-0.143-0.715-0.527-1.066l0.736-0.771
		C393.274,94.682,393.506,95.221,393.506,95.99z"/>
	<path d="M393.439,91.195c0,1.046-0.748,1.529-1.551,1.529h-3.169v0.639h-0.858v-0.639h-1.595v-1.122h1.595v-1.078h0.858v1.078
		h3.113c0.407,0,0.649-0.198,0.649-0.616v-0.462h0.957V91.195z"/>
	<path d="M393.439,83.055h-3.399c-0.869,0-1.243,0.495-1.243,1.123c0,0.627,0.385,1.154,1.243,1.154h3.399v1.122h-7.833v-1.122
		h2.816c-0.418-0.374-0.627-0.891-0.627-1.463s0.187-1.045,0.506-1.375c0.418-0.43,0.946-0.562,1.573-0.562h3.564V83.055z"/>
	<path d="M390.974,79.382c0.969,0,1.562-0.495,1.562-1.42c0-0.627-0.176-0.957-0.572-1.353l0.672-0.716
		c0.571,0.572,0.869,1.111,0.869,2.091c0,1.397-0.737,2.508-2.86,2.508c-1.815,0-2.85-0.935-2.85-2.365
		c0-1.496,1.078-2.365,2.706-2.365h0.473V79.382z M389.434,77.028c-0.418,0.187-0.704,0.572-0.704,1.1
		c0,0.539,0.286,0.925,0.704,1.111c0.242,0.11,0.418,0.132,0.76,0.144v-2.509C389.852,76.896,389.677,76.917,389.434,77.028z"/>
	<path d="M386.762,74.311h-1.188v-1.188h1.188V74.311z M393.439,74.278h-5.578v-1.122h5.578V74.278z"/>
	<path d="M395.761,69.503c0,0.848-0.198,1.387-0.737,1.97l-0.715-0.715c0.33-0.353,0.495-0.66,0.495-1.211
		c0-0.945-0.671-1.309-1.419-1.309h-0.716c0.484,0.407,0.639,0.869,0.639,1.441c0,0.561-0.188,1.022-0.495,1.331
		c-0.539,0.539-1.32,0.627-2.267,0.627s-1.728-0.088-2.267-0.627c-0.308-0.309-0.483-0.781-0.483-1.343
		c0-0.594,0.153-1.045,0.66-1.463h-0.595v-1.089h5.545C394.77,67.116,395.761,68.018,395.761,69.503z M388.797,69.371
		c0,1.013,0.869,1.145,1.749,1.145s1.749-0.132,1.749-1.145c0-1.012-0.869-1.133-1.749-1.133S388.797,68.36,388.797,69.371z"/>
	<path d="M393.439,61.935h-3.399c-0.869,0-1.243,0.495-1.243,1.122c0,0.628,0.385,1.155,1.243,1.155h3.399v1.122h-7.833v-1.122
		h2.816c-0.418-0.374-0.627-0.891-0.627-1.463s0.187-1.045,0.506-1.375c0.418-0.429,0.946-0.562,1.573-0.562h3.564V61.935z"/>
	<path d="M393.439,57.425c0,1.046-0.748,1.529-1.551,1.529h-3.169v0.639h-0.858v-0.639h-1.595v-1.122h1.595v-1.078h0.858v1.078
		h3.113c0.407,0,0.649-0.198,0.649-0.616v-0.462h0.957V57.425z"/>
</g>
<g id="g577_6_">
	<path id="path579_6_" d="M146.22,138.953c-1.067,0-1.529-0.715-1.529-1.54v-6.293h1.123v6.227c0,0.43,0.154,0.649,0.605,0.649
		h0.495v0.957L146.22,138.953L146.22,138.953z"/>
	<path id="path581_6_" d="M151.148,138.953v-0.506c-0.407,0.407-0.792,0.572-1.485,0.572s-1.155-0.165-1.496-0.507
		c-0.286-0.297-0.44-0.726-0.44-1.199c0-0.935,0.649-1.605,1.936-1.605h1.463v-0.396c0-0.715-0.341-1.045-1.221-1.045
		c-0.594,0-0.902,0.154-1.221,0.55l-0.726-0.693c0.517-0.615,1.056-0.813,1.991-0.813c1.541,0,2.299,0.66,2.299,1.914v3.729
		L151.148,138.953L151.148,138.953z M151.126,136.488h-1.287c-0.682,0-1.023,0.286-1.023,0.804c0,0.517,0.319,0.792,1.056,0.792
		c0.396,0,0.715-0.044,1.012-0.319c0.176-0.165,0.242-0.429,0.242-0.825V136.488z"/>
	<path id="path583_6_" d="M155.779,139.019c-0.913,0-1.683-0.154-2.343-0.804l0.737-0.737c0.451,0.463,1.056,0.583,1.606,0.583
		c0.693,0,1.221-0.241,1.221-0.77c0-0.385-0.209-0.605-0.748-0.66l-0.891-0.077c-1.056-0.099-1.65-0.561-1.65-1.54
		c0-1.101,0.935-1.705,2.102-1.705c0.847,0,1.551,0.176,2.068,0.627l-0.704,0.715c-0.352-0.297-0.847-0.407-1.375-0.407
		c-0.682,0-1.012,0.286-1.012,0.716c0,0.385,0.22,0.583,0.771,0.638l0.781,0.066c1.155,0.099,1.76,0.604,1.76,1.584
		C158.1,138.414,157.11,139.019,155.779,139.019z"/>
	<path id="path585_6_" d="M160.289,136.488c0,0.969,0.495,1.562,1.419,1.562c0.627,0,0.958-0.176,1.354-0.572l0.715,0.672
		c-0.572,0.571-1.111,0.869-2.09,0.869c-1.397,0-2.508-0.737-2.508-2.86c0-1.815,0.935-2.85,2.365-2.85
		c1.497,0,2.366,1.078,2.366,2.706v0.473H160.289z M162.643,134.948c-0.187-0.418-0.572-0.704-1.101-0.704
		c-0.539,0-0.924,0.286-1.111,0.704c-0.11,0.242-0.132,0.418-0.143,0.76h2.508C162.775,135.366,162.753,135.19,162.643,134.948z"/>
	<path id="path587_6_" d="M168.462,134.684c-0.253-0.253-0.451-0.374-0.836-0.374c-0.605,0-1.111,0.484-1.111,1.254v3.389h-1.122
		v-5.578h1.1v0.605c0.286-0.396,0.858-0.671,1.485-0.671c0.539,0,0.946,0.143,1.331,0.527L168.462,134.684z"/>
	<path id="path589_6_" d="M173.621,138.953v-3.399c0-0.869-0.495-1.243-1.122-1.243c-0.628,0-1.155,0.385-1.155,1.243v3.399h-1.122
		v-7.833h1.122v2.816c0.374-0.418,0.891-0.627,1.463-0.627s1.045,0.187,1.375,0.506c0.429,0.418,0.562,0.946,0.562,1.573v3.564
		h-1.123V138.953z"/>
	<path id="path591_6_" d="M177.294,136.488c0,0.969,0.495,1.562,1.42,1.562c0.627,0,0.957-0.176,1.353-0.572l0.716,0.672
		c-0.572,0.571-1.111,0.869-2.091,0.869c-1.397,0-2.508-0.737-2.508-2.86c0-1.815,0.935-2.85,2.365-2.85
		c1.496,0,2.365,1.078,2.365,2.706v0.473H177.294z M179.649,134.948c-0.187-0.418-0.572-0.704-1.1-0.704
		c-0.539,0-0.925,0.286-1.111,0.704c-0.11,0.242-0.132,0.418-0.144,0.76h2.509C179.78,135.366,179.759,135.19,179.649,134.948z"/>
	<path id="path593_6_" d="M185.402,138.953v-0.506c-0.407,0.407-0.792,0.572-1.485,0.572s-1.155-0.165-1.496-0.507
		c-0.286-0.297-0.44-0.726-0.44-1.199c0-0.935,0.649-1.605,1.937-1.605h1.464v-0.396c0-0.715-0.342-1.045-1.222-1.045
		c-0.594,0-0.902,0.154-1.221,0.55l-0.727-0.693c0.517-0.615,1.056-0.813,1.991-0.813c1.54,0,2.3,0.66,2.3,1.914v3.729
		L185.402,138.953L185.402,138.953z M185.38,136.488h-1.288c-0.682,0-1.022,0.286-1.022,0.804c0,0.517,0.318,0.792,1.056,0.792
		c0.396,0,0.715-0.044,1.013-0.319c0.176-0.165,0.242-0.429,0.242-0.825v-0.452H185.38z"/>
	<path id="path595_6_" d="M191.43,138.953v-0.594c-0.418,0.506-0.869,0.66-1.475,0.66c-0.561,0-1.056-0.188-1.364-0.495
		c-0.539-0.551-0.627-1.441-0.627-2.365c0-0.914,0.088-1.805,0.627-2.354c0.309-0.309,0.792-0.495,1.354-0.495
		c0.594,0,1.056,0.143,1.463,0.627v-2.816h1.122v7.833h-1.1V138.953z M190.252,134.31c-1.022,0-1.166,0.858-1.166,1.849
		c0,0.989,0.144,1.858,1.166,1.858c1.013,0,1.155-0.869,1.155-1.858C191.407,135.168,191.265,134.31,190.252,134.31z"/>
</g>
<g id="g597_6_">
	<path id="path599_6_" d="M151.522,152.614v-3.399c0-0.869-0.495-1.243-1.122-1.243c-0.605,0-1.155,0.385-1.155,1.188v3.454h-1.122
		v-3.399c0-0.869-0.495-1.243-1.122-1.243s-1.155,0.385-1.155,1.243v3.399h-1.122v-5.578h1.1v0.562
		c0.374-0.407,0.924-0.627,1.485-0.627c0.693,0,1.232,0.274,1.584,0.813c0.451-0.55,1.012-0.813,1.75-0.813
		c0.572,0,1.078,0.187,1.408,0.506c0.429,0.418,0.594,0.946,0.594,1.573v3.564H151.522z"/>
	<path id="path601_6_" d="M157.374,152.614v-0.506c-0.407,0.407-0.792,0.572-1.485,0.572s-1.155-0.165-1.496-0.507
		c-0.286-0.297-0.44-0.726-0.44-1.199c0-0.935,0.649-1.605,1.936-1.605h1.463v-0.396c0-0.715-0.341-1.045-1.221-1.045
		c-0.594,0-0.902,0.154-1.221,0.55l-0.726-0.693c0.517-0.615,1.056-0.813,1.991-0.813c1.541,0,2.299,0.66,2.299,1.914v3.729
		L157.374,152.614L157.374,152.614z M157.352,150.15h-1.287c-0.682,0-1.023,0.285-1.023,0.803c0,0.517,0.319,0.792,1.056,0.792
		c0.396,0,0.715-0.044,1.012-0.319c0.176-0.165,0.242-0.429,0.242-0.825V150.15z"/>
	<path id="path603_6_" d="M161.861,152.614c-1.045,0-1.529-0.748-1.529-1.551v-3.169h-0.638v-0.858h0.638v-1.595h1.123v1.595h1.078
		v0.858h-1.078v3.113c0,0.407,0.198,0.649,0.616,0.649h0.462v0.957h-0.672V152.614z"/>
	<path id="path605_6_" d="M164.733,150.15c0,0.968,0.495,1.562,1.419,1.562c0.627,0,0.958-0.176,1.354-0.572l0.715,0.672
		c-0.572,0.571-1.111,0.869-2.09,0.869c-1.397,0-2.508-0.737-2.508-2.86c0-1.815,0.935-2.85,2.365-2.85
		c1.497,0,2.366,1.078,2.366,2.706v0.474h-3.621V150.15z M167.087,148.609c-0.187-0.418-0.572-0.704-1.101-0.704
		c-0.539,0-0.924,0.286-1.111,0.704c-0.11,0.242-0.132,0.418-0.143,0.76h2.508C167.219,149.027,167.197,148.852,167.087,148.609z"/>
	<path id="path607_6_" d="M172.905,148.346c-0.253-0.253-0.451-0.374-0.836-0.374c-0.605,0-1.111,0.484-1.111,1.254v3.389h-1.122
		v-5.578h1.101v0.605c0.285-0.396,0.857-0.671,1.484-0.671c0.539,0,0.946,0.143,1.332,0.527L172.905,148.346z"/>
	<path id="path609_6_" d="M174.632,145.936v-1.188h1.188v1.188H174.632z M174.665,152.614v-5.578h1.122v5.578H174.665z"/>
	<path id="path611_6_" d="M180.572,152.614v-0.506c-0.407,0.407-0.792,0.572-1.485,0.572s-1.155-0.165-1.496-0.507
		c-0.286-0.297-0.44-0.726-0.44-1.199c0-0.935,0.649-1.605,1.937-1.605h1.463v-0.396c0-0.715-0.341-1.045-1.221-1.045
		c-0.594,0-0.902,0.154-1.221,0.55l-0.727-0.693c0.517-0.615,1.057-0.813,1.991-0.813c1.54,0,2.3,0.66,2.3,1.914v3.729
		L180.572,152.614L180.572,152.614z M180.55,150.15h-1.287c-0.682,0-1.022,0.285-1.022,0.803c0,0.517,0.318,0.792,1.056,0.792
		c0.396,0,0.715-0.044,1.013-0.319c0.176-0.165,0.241-0.429,0.241-0.825L180.55,150.15L180.55,150.15z"/>
	<path id="path613_6_" d="M184.896,152.614c-1.067,0-1.529-0.715-1.529-1.54v-6.293h1.122v6.227c0,0.43,0.154,0.649,0.604,0.649
		h0.495v0.957L184.896,152.614L184.896,152.614z"/>
</g>
<line id="line615_6_" fill="none" stroke="#42AB37" stroke-width="0.5" stroke-miterlimit="10" x1="344.157" y1="155.061" x2="343.808" y2="47.102"/>
<rect id="rect617_6_" x="581.354" y="140.887" fill="none" stroke="#E52424" stroke-miterlimit="10" width="2.268" height="14.173"/>
<path id="path619_6_" fill="none" stroke="#E52424" stroke-miterlimit="10" d="M366.338,135.607c0,3.052-2.253,5.526-5.033,5.526
	l0,0c-2.78,0-5.033-2.474-5.033-5.526V66.555c0-3.052,2.253-5.526,5.033-5.526l0,0c2.78,0,5.033,2.474,5.033,5.526V135.607z"/>
<g id="g621_6_">
	<path id="path623_6_" d="M303.63,124.924h5.146v1.224h-5.146v0.695h-0.936v-0.695h-0.827c-0.876,0-1.691-0.527-1.691-1.667v-0.768
		h1.044v0.54c0,0.455,0.264,0.671,0.707,0.671h0.768v-1.211h0.936v1.211H303.63z"/>
	<path id="path625_6_" d="M308.128,118.518c0.407,0.396,0.72,0.995,0.72,1.823c0,0.827-0.312,1.415-0.72,1.811
		c-0.6,0.576-1.367,0.72-2.398,0.72c-1.02,0-1.787-0.144-2.387-0.72c-0.408-0.396-0.72-0.983-0.72-1.811s0.312-1.428,0.72-1.823
		c0.6-0.575,1.367-0.72,2.387-0.72C306.761,117.798,307.528,117.943,308.128,118.518z M304.062,119.442
		c-0.228,0.228-0.348,0.539-0.348,0.899c0,0.359,0.12,0.659,0.348,0.888c0.372,0.371,1.008,0.42,1.668,0.42
		c0.659,0,1.295-0.049,1.667-0.42c0.228-0.229,0.359-0.528,0.359-0.888s-0.132-0.672-0.359-0.899
		c-0.372-0.372-1.008-0.42-1.667-0.42C305.069,119.022,304.434,119.07,304.062,119.442z"/>
	<path id="path627_6_" d="M308.848,113.741c0,1.367-0.84,2.71-3.118,2.71c-2.279,0-3.106-1.343-3.106-2.71
		c0-0.84,0.239-1.428,0.852-2.003l0.815,0.839c-0.42,0.384-0.576,0.684-0.576,1.164c0,0.468,0.192,0.863,0.54,1.127
		c0.336,0.264,0.768,0.36,1.476,0.36c0.707,0,1.151-0.097,1.486-0.36c0.349-0.264,0.54-0.659,0.54-1.127
		c0-0.48-0.156-0.78-0.575-1.164l0.803-0.839C308.596,112.314,308.848,112.902,308.848,113.741z"/>
	<path id="path629_6_" d="M308.775,106.65h-0.611c0.455,0.42,0.684,1.008,0.684,1.619c0,0.624-0.204,1.14-0.552,1.5
		c-0.456,0.468-1.031,0.611-1.715,0.611h-3.887v-1.224h3.706c0.948,0,1.355-0.539,1.355-1.223c0-0.685-0.42-1.26-1.355-1.26h-3.706
		v-1.224h6.081V106.65z"/>
	<path id="path631_6_" d="M308.848,101.537c0,0.995-0.168,1.835-0.876,2.555l-0.804-0.804c0.504-0.492,0.636-1.151,0.636-1.751
		c0-0.756-0.264-1.331-0.839-1.331c-0.42,0-0.66,0.228-0.72,0.815l-0.084,0.972c-0.108,1.151-0.612,1.799-1.68,1.799
		c-1.199,0-1.858-1.02-1.858-2.291c0-0.923,0.191-1.69,0.684-2.255l0.779,0.768c-0.324,0.384-0.443,0.924-0.443,1.499
		c0,0.744,0.312,1.104,0.779,1.104c0.42,0,0.636-0.239,0.695-0.84l0.072-0.851c0.107-1.26,0.659-1.919,1.727-1.919
		C308.188,99.007,308.848,100.086,308.848,101.537z"/>
	<path id="path633_6_" d="M308.775,92.825c0,1.139-0.815,1.667-1.691,1.667h-3.454v0.695h-0.936v-0.695h-1.738v-1.224h1.738v-1.175
		h0.936v1.175h3.395c0.443,0,0.708-0.216,0.708-0.672v-0.503h1.043L308.775,92.825L308.775,92.825z"/>
	<path id="path635_6_" d="M308.128,86.528c0.407,0.396,0.72,0.995,0.72,1.823c0,0.827-0.312,1.415-0.72,1.811
		c-0.6,0.576-1.367,0.72-2.398,0.72c-1.02,0-1.787-0.144-2.387-0.72c-0.408-0.396-0.72-0.983-0.72-1.811s0.312-1.428,0.72-1.823
		c0.6-0.576,1.367-0.72,2.387-0.72C306.761,85.808,307.528,85.951,308.128,86.528z M304.062,87.451
		c-0.228,0.228-0.348,0.539-0.348,0.899c0,0.359,0.12,0.659,0.348,0.887c0.372,0.372,1.008,0.42,1.668,0.42
		c0.659,0,1.295-0.048,1.667-0.42c0.228-0.228,0.359-0.527,0.359-0.887s-0.132-0.672-0.359-0.899
		c-0.372-0.372-1.008-0.42-1.667-0.42C305.069,87.031,304.434,87.079,304.062,87.451z"/>
	<path id="path637_6_" d="M308.128,80.084c0.407,0.396,0.72,0.995,0.72,1.823c0,0.827-0.312,1.415-0.72,1.811
		c-0.6,0.576-1.367,0.72-2.398,0.72c-1.02,0-1.787-0.144-2.387-0.72c-0.408-0.396-0.72-0.983-0.72-1.811s0.312-1.428,0.72-1.823
		c0.6-0.576,1.367-0.72,2.387-0.72C306.761,79.364,307.528,79.508,308.128,80.084z M304.062,81.008
		c-0.228,0.228-0.348,0.539-0.348,0.899c0,0.359,0.12,0.659,0.348,0.887c0.372,0.372,1.008,0.42,1.668,0.42
		c0.659,0,1.295-0.048,1.667-0.42c0.228-0.228,0.359-0.527,0.359-0.887s-0.132-0.672-0.359-0.899
		c-0.372-0.372-1.008-0.42-1.667-0.42C305.069,80.588,304.434,80.636,304.062,81.008z"/>
	<path id="path639_6_" d="M308.775,76.075c0,1.163-0.779,1.667-1.679,1.667h-6.86v-1.224h6.788c0.468,0,0.708-0.168,0.708-0.659
		v-0.54h1.043L308.775,76.075L308.775,76.075z"/>
</g>
<polygon id="polygon641_6_" points="135.489,151.136 135.489,141.665 133.788,141.665 133.788,151.136 131.754,149.101 
	131.754,151.55 134.638,154.435 137.523,151.55 137.523,149.101 "/>
<polygon id="polygon643_6_" points="137.523,130.333 134.638,127.448 131.754,130.333 131.754,132.782 133.788,130.747 
	133.788,140.218 135.489,140.218 135.489,130.747 137.523,132.782 "/>
<line id="line645_6_" fill="none" stroke="#42AB37" stroke-width="0.5" stroke-miterlimit="10" x1="340.625" y1="155.061" x2="340.973" y2="47.102"/>
<polygon id="polygon647_6_" fill="none" stroke="#E52424" stroke-miterlimit="10" points="340.625,155.061 143.666,155.061 
	93.476,155.061 62.039,155.061 59.036,140.971 61.973,126.77 94.388,126.77 144.579,126.77 144.645,47.102 340.973,47.102 
	343.808,47.102 540.767,47.102 540.701,126.825 590.891,126.825 623.306,126.825 626.244,140.887 623.372,155.061 591.306,155.061 
	541.115,155.061 344.157,155.061 "/>
<rect id="rect649_6_" x="101.128" y="140.887" fill="none" stroke="#E52424" stroke-miterlimit="10" width="2.268" height="14.173"/>
<g id="g651_6_">
	<path id="path3572_7_" d="M264.794,95.259c0.157,0.901,2.436,1.311,3.405,2.075c1.09,0.857,2.271,1.527,3.915,1.918
		c-0.296-0.335-0.227-0.568-0.196-0.744c2.936,0.627,4.188-0.744,3.993-0.783c-0.366,0.115-0.51,0.049-0.626,0
		c0.509-0.392,0.9-1.957,0.743-3.601c-0.704,1.604-1.879,1.8-2.78,1.487c-0.9-0.313-2.426-3.327-3.17-4.07
		c0.345-0.036,0.762,0.053,0.979,0.157c-0.352-0.627-1.41-0.823-3.053-0.587c0.195-0.274,0.547-0.626,1.408-0.861
		c-2.974-0.157-4.188,2.153-4.892,3.562h-0.083c-0.705-1.409-1.918-3.719-4.893-3.562c0.861,0.235,1.213,0.588,1.409,0.861
		c-1.644-0.236-2.702-0.04-3.053,0.587c0.216-0.104,0.634-0.193,0.978-0.157c-0.744,0.744-2.27,3.757-3.17,4.07
		c-0.9,0.314-2.075,0.118-2.78-1.487c-0.157,1.644,0.235,3.21,0.744,3.601c-0.117,0.049-0.26,0.115-0.627,0
		c-0.196,0.039,1.057,1.41,3.993,0.783c0.033,0.176,0.101,0.408-0.195,0.744c1.644-0.391,2.826-1.061,3.914-1.918
		c0.969-0.763,3.204-1.149,3.405-2.075C264.386,95.015,264.605,95.049,264.794,95.259L264.794,95.259z"/>
	<path id="path654_6_" d="M282.953,75.605L282.953,75.605c-2.319,0-15.066,0-15.454,0c-0.427,0-1.08,0.326-1.284,0.572
		c-0.204,0.245-0.727,0.949-0.727,0.949h-2.021c0,0-0.524-0.703-0.728-0.949c-0.203-0.246-0.856-0.572-1.283-0.572
		c-0.391,0-13.269,0-15.49,0c-0.21,0-0.325,0.16-0.325,0.321c0,0.162,0,1.245,0,1.347c0,0.103,0.058,0.301,0.145,0.346
		c0.239,0.124,0.698,0.363,0.788,0.411c0.123,0.064,0.347,0.421,0.394,0.606c0.047,0.185,1.8,7.13,1.897,7.511
		c0.113,0.449,0.51,0.812,1.017,0.812c2.335,0,8.935,0,9.414,0c0.582,0,1.229-0.355,1.52-0.879c0.291-0.526,3.168-5.72,3.168-5.72
		h0.987c0,0,2.877,5.195,3.168,5.72s0.937,0.879,1.52,0.879c0.479,0,7.079,0,9.415,0c0.506,0,0.903-0.363,1.016-0.812
		c0.096-0.377,1.451-5.745,1.883-7.454c0.082-0.326,0.328-0.621,0.541-0.732c0.132-0.069,0.409-0.213,0.6-0.313
		c0.117-0.06,0.202-0.188,0.202-0.359c0-0.171,0-1.264,0-1.395C283.314,75.765,283.186,75.605,282.953,75.605z M261.527,78.15
		L261.527,78.15l-1.419,6.163c-0.169,0.734-0.923,1.334-1.676,1.334h-6.971c-0.753,0-1.468-0.608-1.588-1.351l-0.994-6.128
		c-0.121-0.743,0.397-1.351,1.15-1.351h10.439C261.218,76.816,261.696,77.416,261.527,78.15z M280.347,78.167l-0.994,6.128
		c-0.121,0.743-0.836,1.351-1.588,1.351h-6.971c-0.753,0-1.507-0.6-1.676-1.334l-1.421-6.163c-0.168-0.734,0.309-1.334,1.062-1.334
		h10.439C279.95,76.816,280.467,77.424,280.347,78.167L280.347,78.167z"/>
</g>
<polygon id="polygon656_6_" points="228.931,116.989 228.931,106.104 226.976,106.104 226.976,116.989 224.638,114.65 
	224.638,117.465 227.953,120.78 231.269,117.465 231.269,114.65 "/>
<polygon id="polygon658_6_" points="231.269,91.812 227.953,88.497 224.638,91.812 224.638,94.627 226.976,92.288 226.976,103.173 
	228.931,103.173 228.931,92.288 231.269,94.627 "/>
<path d="M290.346,141.536h-51.734V63.907c0-3.228,4.739-3.265,4.941-3.265h41.852c0.051,0,1.252,0.004,2.434,0.384
	c1.64,0.526,2.507,1.523,2.507,2.881V141.536z M239.406,140.743h50.146V63.907c0-2.443-4.104-2.472-4.145-2.472h-41.854
	c-0.041,0-4.147,0.034-4.147,2.472V140.743z"/>
<rect id="rect664_6_" x="236.667" y="102.585" width="2.342" height="3.961"/>
<rect id="rect666_6_" x="233.238" y="98.994" width="3.429" height="11.144"/>
<polygon id="polygon668_2_" points="248.449,140.737 247.57,138.276 246.691,135.815 248.449,135.815 250.208,135.815 
	249.329,138.276 "/>
<rect id="rect670_6_" x="95.945" y="106.915" fill="none" stroke="#E52424" stroke-miterlimit="10" width="4.819" height="14.173"/>
<polygon id="polygon672_6_" fill="none" stroke="#E52424" stroke-miterlimit="10" points="108.614,121.088 125.284,121.088 
	139.698,121.088 142.072,106.915 139.698,92.742 125.633,92.742 108.962,92.742 108.614,92.742 58.424,92.742 57.011,92.742 
	54.637,106.915 57.011,121.088 58.075,121.088 108.266,121.088 "/>
<path id="path674_6_" fill="none" stroke="#E52424" stroke-miterlimit="10" d="M318.443,135.607c0,3.052,2.253,5.526,5.033,5.526
	l0,0c2.78,0,5.033-2.474,5.033-5.526V66.555c0-3.052-2.253-5.526-5.033-5.526l0,0c-2.78,0-5.033,2.474-5.033,5.526V135.607z"/>
<g id="g676_6_">
	<rect id="rect678_6_" x="399.778" y="49.845" width="2" height="102.439"/>
	<g id="g680_6_">
		<polygon id="polygon682_6_" points="397.387,53.81 400.777,50.433 404.168,53.81 404.168,50.945 400.777,47.57 397.387,50.945 		
			"/>
	</g>
	<g id="g684_6_">
		<polygon id="polygon686_6_" points="397.387,148.318 400.777,151.695 404.168,148.318 404.168,151.184 400.777,154.559 
			397.387,151.184 		"/>
	</g>
</g>
<path id="path690_6_" d="M468.872,150.46h-23.999c-0.147,0-0.288-0.066-0.383-0.18s-0.135-0.263-0.109-0.408
	c0.003-0.019,0.312-1.854-0.768-3.142c-0.741-0.884-1.981-1.332-3.687-1.332c-0.276,0-0.5-0.224-0.5-0.5v-5.062
	c0-0.276,0.224-0.5,0.5-0.5h28.945c0.276,0,0.5,0.224,0.5,0.5v10.123C469.372,150.236,469.148,150.46,468.872,150.46z
	 M445.422,149.46h22.95v-9.123h-27.945v4.073c1.769,0.089,3.099,0.654,3.96,1.686C445.348,147.249,445.452,148.673,445.422,149.46z"
	/>
<path id="path694_6_" d="M468.872,120.665h-23.999c-0.147,0-0.288-0.066-0.383-0.18s-0.135-0.263-0.109-0.408
	c0.003-0.019,0.312-1.854-0.768-3.142c-0.741-0.884-1.981-1.332-3.687-1.332c-0.276,0-0.5-0.224-0.5-0.5v-5.062
	c0-0.276,0.224-0.5,0.5-0.5h28.945c0.276,0,0.5,0.224,0.5,0.5v10.124C469.372,120.441,469.148,120.665,468.872,120.665z
	 M445.422,119.665h22.95v-9.124h-27.945v4.074c1.769,0.089,3.099,0.654,3.96,1.686C445.348,117.454,445.452,118.878,445.422,119.665
	z"/>
<path id="path698_6_" d="M468.872,91.445h-23.999c-0.147,0-0.288-0.066-0.383-0.18s-0.135-0.263-0.109-0.408
	c0.003-0.019,0.312-1.855-0.768-3.143c-0.742-0.884-1.982-1.332-3.687-1.332c-0.276,0-0.5-0.224-0.5-0.5V80.82
	c0-0.276,0.224-0.5,0.5-0.5h28.945c0.276,0,0.5,0.224,0.5,0.5v10.124C469.372,91.222,469.148,91.445,468.872,91.445z
	 M445.422,90.445h22.95v-9.124h-27.945v4.073c1.769,0.089,3.099,0.654,3.959,1.686C445.348,88.233,445.452,89.658,445.422,90.445z"
	/>
<path id="path702_5_" d="M468.872,61.762h-23.999c-0.147,0-0.288-0.066-0.383-0.179s-0.135-0.264-0.109-0.409
	c0.003-0.018,0.312-1.854-0.768-3.141c-0.741-0.884-1.981-1.332-3.687-1.332c-0.276,0-0.5-0.224-0.5-0.5v-5.062
	c0-0.276,0.224-0.5,0.5-0.5h28.945c0.276,0,0.5,0.224,0.5,0.5v10.124C469.372,61.539,469.148,61.762,468.872,61.762z
	 M445.422,60.762h22.95v-9.124h-27.945v4.074c1.769,0.088,3.099,0.654,3.96,1.685C445.348,58.551,445.452,59.976,445.422,60.762z"/>
<g>
	<path d="M481.507,54.309h-0.017l-0.903,0.631c-0.048,0.032-0.088,0.016-0.088-0.048V54.3c0-0.048,0.016-0.08,0.056-0.112
		l0.936-0.68c0.04-0.032,0.072-0.048,0.128-0.048h0.48c0.048,0,0.08,0.032,0.08,0.08v5.277c0,0.049-0.032,0.08-0.08,0.08h-0.512
		c-0.049,0-0.08-0.031-0.08-0.08V54.309z"/>
	<path d="M484.267,57.004V56.54c0-0.048,0.032-0.08,0.08-0.08h2.127c0.048,0,0.079,0.032,0.079,0.08v0.464
		c0,0.048-0.031,0.08-0.079,0.08h-2.127C484.3,57.084,484.267,57.051,484.267,57.004z"/>
	<path d="M488.883,54.309h-0.017l-0.903,0.631c-0.048,0.032-0.088,0.016-0.088-0.048V54.3c0-0.048,0.017-0.08,0.056-0.112
		l0.936-0.68c0.04-0.032,0.072-0.048,0.128-0.048h0.48c0.048,0,0.079,0.032,0.079,0.08v5.277c0,0.049-0.031,0.08-0.079,0.08h-0.512
		c-0.048,0-0.08-0.031-0.08-0.08V54.309z"/>
	<path d="M492.131,56.084l1.384-2.566c0.023-0.048,0.048-0.056,0.104-0.056h0.544c0.056,0,0.072,0.032,0.048,0.08l-1.215,2.255
		l0.016,0.016c0.104-0.072,0.319-0.128,0.552-0.128c0.855,0,1.543,0.624,1.543,1.615c0,1.063-0.728,1.687-1.671,1.687
		c-0.951,0-1.663-0.623-1.663-1.663C491.771,56.891,491.923,56.467,492.131,56.084z M493.434,58.363
		c0.592,0,0.983-0.424,0.983-1.031c0-0.608-0.392-1.023-0.983-1.023s-0.976,0.415-0.976,1.023
		C492.459,57.939,492.843,58.363,493.434,58.363z"/>
	<path d="M501.152,58.898c-0.048,0-0.08-0.031-0.08-0.08V56.58c0-0.616-0.279-0.976-0.855-0.976c-0.512,0-0.879,0.368-0.879,0.936
		v2.278c0,0.049-0.032,0.08-0.08,0.08h-0.512c-0.048,0-0.08-0.031-0.08-0.08V56.58c0-0.616-0.28-0.976-0.855-0.976
		c-0.52,0-0.88,0.368-0.88,0.936v2.278c0,0.049-0.032,0.08-0.08,0.08h-0.512c-0.048,0-0.08-0.031-0.08-0.08v-3.67
		c0-0.048,0.032-0.08,0.08-0.08h0.512c0.048,0,0.08,0.032,0.08,0.08v0.353h0.008c0.185-0.296,0.552-0.521,1.071-0.521
		c0.521,0,0.904,0.216,1.12,0.6h0.008c0.264-0.368,0.655-0.6,1.239-0.6c0.888,0,1.367,0.568,1.367,1.439v2.398
		c0,0.049-0.032,0.08-0.08,0.08H501.152z"/>
	<path d="M507.912,58.898c-0.048,0-0.08-0.031-0.08-0.08V56.58c0-0.616-0.279-0.976-0.855-0.976c-0.512,0-0.879,0.368-0.879,0.936
		v2.278c0,0.049-0.032,0.08-0.08,0.08h-0.512c-0.048,0-0.08-0.031-0.08-0.08V56.58c0-0.616-0.28-0.976-0.855-0.976
		c-0.52,0-0.88,0.368-0.88,0.936v2.278c0,0.049-0.032,0.08-0.08,0.08h-0.512c-0.048,0-0.08-0.031-0.08-0.08v-3.67
		c0-0.048,0.032-0.08,0.08-0.08h0.512c0.048,0,0.08,0.032,0.08,0.08v0.353h0.008c0.185-0.296,0.552-0.521,1.071-0.521
		c0.521,0,0.904,0.216,1.12,0.6h0.008c0.264-0.368,0.655-0.6,1.239-0.6c0.888,0,1.367,0.568,1.367,1.439v2.398
		c0,0.049-0.032,0.08-0.08,0.08H507.912z"/>
</g>
<g>
	<path d="M480.419,85.481l1.384-2.566c0.023-0.048,0.048-0.056,0.104-0.056h0.544c0.056,0,0.072,0.032,0.048,0.08l-1.216,2.255
		l0.017,0.016c0.104-0.072,0.319-0.128,0.552-0.128c0.855,0,1.543,0.624,1.543,1.615c0,1.063-0.728,1.687-1.671,1.687
		c-0.952,0-1.663-0.623-1.663-1.663C480.059,86.289,480.211,85.865,480.419,85.481z M481.722,87.76c0.592,0,0.983-0.424,0.983-1.031
		c0-0.608-0.392-1.023-0.983-1.023s-0.976,0.415-0.976,1.023C480.747,87.337,481.131,87.76,481.722,87.76z"/>
	<path d="M484.267,86.401v-0.464c0-0.048,0.032-0.08,0.08-0.08h2.127c0.048,0,0.079,0.032,0.079,0.08v0.464
		c0,0.048-0.031,0.08-0.079,0.08h-2.127C484.3,86.481,484.267,86.449,484.267,86.401z"/>
	<path d="M487.563,87.8c0-0.048,0.008-0.072,0.04-0.112l1.959-2.494c0.239-0.305,0.384-0.601,0.384-0.944
		c0-0.487-0.328-0.855-0.855-0.855c-0.521,0-0.808,0.312-0.888,0.8c-0.008,0.048-0.04,0.072-0.088,0.064l-0.488-0.104
		c-0.048-0.016-0.071-0.048-0.063-0.096c0.072-0.647,0.584-1.287,1.543-1.287c0.951,0,1.527,0.64,1.527,1.479
		c0,0.488-0.2,0.888-0.528,1.304l-1.679,2.11v0.009h2.127c0.048,0,0.08,0.031,0.08,0.08v0.463c0,0.049-0.032,0.08-0.08,0.08h-2.91
		c-0.048,0-0.08-0.031-0.08-0.08V87.8z"/>
	<path d="M491.691,87.264v-0.439c0-0.032,0.008-0.064,0.024-0.096l1.759-3.807c0.023-0.048,0.056-0.063,0.111-0.063h0.536
		c0.056,0,0.072,0.032,0.056,0.071l-1.734,3.782v0.017h1.438c0.032,0,0.048-0.017,0.048-0.049v-1.423c0-0.048,0.032-0.08,0.08-0.08
		h0.512c0.048,0,0.08,0.032,0.08,0.08v1.423c0,0.032,0.017,0.049,0.048,0.049h0.496c0.048,0,0.08,0.031,0.08,0.079v0.456
		c0,0.048-0.032,0.08-0.08,0.08h-0.496c-0.031,0-0.048,0.016-0.048,0.048v0.823c0,0.049-0.032,0.08-0.08,0.08h-0.512
		c-0.048,0-0.08-0.031-0.08-0.08v-0.823c0-0.032-0.016-0.048-0.048-0.048h-2.11C491.723,87.344,491.691,87.312,491.691,87.264z"/>
	<path d="M501.152,88.296c-0.048,0-0.08-0.031-0.08-0.08v-2.238c0-0.616-0.279-0.976-0.855-0.976c-0.512,0-0.879,0.368-0.879,0.936
		v2.278c0,0.049-0.032,0.08-0.08,0.08h-0.512c-0.048,0-0.08-0.031-0.08-0.08v-2.238c0-0.616-0.28-0.976-0.855-0.976
		c-0.52,0-0.88,0.368-0.88,0.936v2.278c0,0.049-0.032,0.08-0.08,0.08h-0.512c-0.048,0-0.08-0.031-0.08-0.08v-3.67
		c0-0.048,0.032-0.08,0.08-0.08h0.512c0.048,0,0.08,0.032,0.08,0.08v0.353h0.008c0.185-0.296,0.552-0.521,1.071-0.521
		c0.521,0,0.904,0.216,1.12,0.6h0.008c0.264-0.367,0.655-0.6,1.239-0.6c0.888,0,1.367,0.568,1.367,1.439v2.398
		c0,0.049-0.032,0.08-0.08,0.08H501.152z"/>
	<path d="M507.912,88.296c-0.048,0-0.08-0.031-0.08-0.08v-2.238c0-0.616-0.279-0.976-0.855-0.976c-0.512,0-0.879,0.368-0.879,0.936
		v2.278c0,0.049-0.032,0.08-0.08,0.08h-0.512c-0.048,0-0.08-0.031-0.08-0.08v-2.238c0-0.616-0.28-0.976-0.855-0.976
		c-0.52,0-0.88,0.368-0.88,0.936v2.278c0,0.049-0.032,0.08-0.08,0.08h-0.512c-0.048,0-0.08-0.031-0.08-0.08v-3.67
		c0-0.048,0.032-0.08,0.08-0.08h0.512c0.048,0,0.08,0.032,0.08,0.08v0.353h0.008c0.185-0.296,0.552-0.521,1.071-0.521
		c0.521,0,0.904,0.216,1.12,0.6h0.008c0.264-0.367,0.655-0.6,1.239-0.6c0.888,0,1.367,0.568,1.367,1.439v2.398
		c0,0.049-0.032,0.08-0.08,0.08H507.912z"/>
</g>
<g>
	<path d="M477.016,112.935H477l-0.903,0.631c-0.048,0.032-0.088,0.017-0.088-0.048v-0.592c0-0.048,0.016-0.079,0.056-0.111
		l0.936-0.68c0.04-0.032,0.072-0.048,0.128-0.048h0.48c0.048,0,0.08,0.032,0.08,0.08v5.276c0,0.049-0.032,0.08-0.08,0.08h-0.512
		c-0.049,0-0.08-0.031-0.08-0.08V112.935z"/>
	<path d="M480.033,117.029c0-0.048,0.008-0.072,0.04-0.112l1.959-2.494c0.239-0.305,0.384-0.601,0.384-0.944
		c0-0.487-0.328-0.855-0.855-0.855c-0.521,0-0.808,0.312-0.888,0.8c-0.008,0.048-0.04,0.072-0.088,0.064l-0.488-0.104
		c-0.048-0.016-0.071-0.048-0.063-0.096c0.071-0.647,0.583-1.287,1.543-1.287c0.951,0,1.527,0.64,1.527,1.479
		c0,0.488-0.2,0.888-0.528,1.304l-1.679,2.11v0.009h2.127c0.048,0,0.08,0.031,0.08,0.08v0.463c0,0.049-0.032,0.08-0.08,0.08h-2.91
		c-0.048,0-0.08-0.031-0.08-0.08V117.029z"/>
	<path d="M484.113,115.63v-0.464c0-0.048,0.032-0.08,0.08-0.08h2.127c0.048,0,0.079,0.032,0.079,0.08v0.464
		c0,0.048-0.031,0.08-0.079,0.08h-2.127C484.145,115.71,484.113,115.677,484.113,115.63z"/>
	<path d="M487.377,116.365l0.487-0.12c0.049-0.016,0.08,0.008,0.097,0.057c0.111,0.344,0.392,0.688,0.967,0.688
		c0.584,0,0.936-0.408,0.936-0.96c0-0.607-0.392-1.007-0.999-1.007h-0.24c-0.048,0-0.08-0.032-0.08-0.08v-0.464
		c0-0.048,0.032-0.08,0.08-0.08h0.232c0.543,0,0.903-0.359,0.903-0.911c0-0.504-0.328-0.864-0.872-0.864
		c-0.503,0-0.768,0.296-0.863,0.664c-0.016,0.048-0.048,0.072-0.096,0.063l-0.479-0.119c-0.048-0.009-0.072-0.049-0.064-0.097
		c0.112-0.607,0.656-1.135,1.527-1.135c0.96,0,1.535,0.615,1.535,1.471c0,0.544-0.296,0.936-0.672,1.168v0.016
		c0.336,0.144,0.776,0.607,0.776,1.352c0,0.951-0.68,1.606-1.624,1.606c-0.879,0-1.463-0.487-1.614-1.151
		C487.304,116.413,487.329,116.381,487.377,116.365z"/>
	<path d="M491.673,114.806c0-1.279,0.056-1.567,0.12-1.775c0.216-0.664,0.735-1.031,1.487-1.031c0.751,0,1.271,0.367,1.487,1.031
		c0.063,0.208,0.12,0.496,0.12,1.775s-0.057,1.566-0.12,1.774c-0.216,0.664-0.736,1.031-1.487,1.031
		c-0.752,0-1.271-0.367-1.487-1.031C491.728,116.373,491.673,116.086,491.673,114.806z M493.28,116.989
		c0.399,0,0.695-0.185,0.823-0.544c0.056-0.168,0.088-0.399,0.088-1.639c0-1.24-0.032-1.472-0.088-1.64
		c-0.128-0.359-0.424-0.544-0.823-0.544c-0.4,0-0.695,0.185-0.824,0.544c-0.056,0.168-0.088,0.399-0.088,1.64
		c0,1.239,0.032,1.471,0.088,1.639C492.585,116.804,492.88,116.989,493.28,116.989z"/>
	<path d="M500.998,117.524c-0.048,0-0.08-0.031-0.08-0.08v-2.238c0-0.616-0.279-0.976-0.855-0.976c-0.512,0-0.879,0.368-0.879,0.936
		v2.278c0,0.049-0.032,0.08-0.08,0.08h-0.512c-0.048,0-0.08-0.031-0.08-0.08v-2.238c0-0.616-0.28-0.976-0.855-0.976
		c-0.52,0-0.88,0.368-0.88,0.936v2.278c0,0.049-0.032,0.08-0.08,0.08h-0.512c-0.048,0-0.08-0.031-0.08-0.08v-3.67
		c0-0.048,0.032-0.08,0.08-0.08h0.512c0.048,0,0.08,0.032,0.08,0.08v0.353h0.008c0.185-0.296,0.552-0.521,1.071-0.521
		c0.521,0,0.904,0.216,1.12,0.6h0.008c0.264-0.367,0.655-0.6,1.239-0.6c0.888,0,1.367,0.568,1.367,1.439v2.398
		c0,0.049-0.032,0.08-0.08,0.08H500.998z"/>
	<path d="M507.758,117.524c-0.048,0-0.08-0.031-0.08-0.08v-2.238c0-0.616-0.279-0.976-0.855-0.976c-0.512,0-0.879,0.368-0.879,0.936
		v2.278c0,0.049-0.032,0.08-0.08,0.08h-0.512c-0.048,0-0.08-0.031-0.08-0.08v-2.238c0-0.616-0.28-0.976-0.855-0.976
		c-0.52,0-0.88,0.368-0.88,0.936v2.278c0,0.049-0.032,0.08-0.08,0.08h-0.512c-0.048,0-0.08-0.031-0.08-0.08v-3.67
		c0-0.048,0.032-0.08,0.08-0.08h0.512c0.048,0,0.08,0.032,0.08,0.08v0.353h0.008c0.185-0.296,0.552-0.521,1.071-0.521
		c0.521,0,0.904,0.216,1.12,0.6h0.008c0.264-0.367,0.655-0.6,1.239-0.6c0.888,0,1.367,0.568,1.367,1.439v2.398
		c0,0.049-0.032,0.08-0.08,0.08H507.758z"/>
</g>
<g>
	<path d="M475.697,146.541c0-0.048,0.008-0.072,0.04-0.112l1.959-2.494c0.239-0.305,0.384-0.601,0.384-0.944
		c0-0.487-0.328-0.855-0.855-0.855c-0.521,0-0.808,0.312-0.888,0.8c-0.008,0.048-0.04,0.072-0.088,0.064l-0.488-0.104
		c-0.048-0.016-0.071-0.048-0.063-0.096c0.071-0.647,0.583-1.287,1.543-1.287c0.951,0,1.527,0.64,1.527,1.479
		c0,0.488-0.2,0.888-0.528,1.304l-1.679,2.11v0.009h2.127c0.048,0,0.08,0.031,0.08,0.08v0.463c0,0.049-0.032,0.08-0.08,0.08h-2.91
		c-0.048,0-0.08-0.031-0.08-0.08V146.541z"/>
	<path d="M479.961,144.318c0-1.279,0.056-1.567,0.12-1.775c0.216-0.664,0.735-1.031,1.487-1.031c0.751,0,1.271,0.367,1.487,1.031
		c0.063,0.208,0.119,0.496,0.119,1.775s-0.056,1.566-0.119,1.774c-0.216,0.664-0.736,1.031-1.487,1.031
		c-0.752,0-1.271-0.367-1.487-1.031C480.016,145.884,479.961,145.597,479.961,144.318z M481.568,146.501
		c0.399,0,0.695-0.185,0.823-0.544c0.056-0.168,0.088-0.399,0.088-1.639c0-1.24-0.032-1.472-0.088-1.64
		c-0.128-0.359-0.424-0.544-0.823-0.544c-0.4,0-0.696,0.185-0.823,0.544c-0.057,0.168-0.089,0.399-0.089,1.64
		c0,1.239,0.032,1.471,0.089,1.639C480.872,146.316,481.168,146.501,481.568,146.501z"/>
	<path d="M484.113,145.141v-0.464c0-0.048,0.032-0.08,0.08-0.08h2.127c0.048,0,0.079,0.032,0.079,0.08v0.464
		c0,0.048-0.031,0.08-0.079,0.08h-2.127C484.145,145.221,484.113,145.189,484.113,145.141z"/>
	<path d="M487.377,145.877l0.487-0.12c0.049-0.016,0.08,0.008,0.097,0.057c0.111,0.344,0.392,0.688,0.967,0.688
		c0.584,0,0.936-0.408,0.936-0.96c0-0.607-0.392-1.007-0.999-1.007h-0.24c-0.048,0-0.08-0.032-0.08-0.08v-0.464
		c0-0.048,0.032-0.08,0.08-0.08h0.232c0.543,0,0.903-0.359,0.903-0.911c0-0.504-0.328-0.864-0.872-0.864
		c-0.503,0-0.768,0.296-0.863,0.664c-0.016,0.048-0.048,0.072-0.096,0.063l-0.479-0.119c-0.048-0.009-0.072-0.049-0.064-0.097
		c0.112-0.607,0.656-1.135,1.527-1.135c0.96,0,1.535,0.615,1.535,1.471c0,0.544-0.296,0.936-0.672,1.168v0.016
		c0.336,0.144,0.776,0.607,0.776,1.352c0,0.951-0.68,1.606-1.624,1.606c-0.879,0-1.463-0.487-1.614-1.151
		C487.304,145.924,487.329,145.892,487.377,145.877z"/>
	<path d="M492.368,144.181v-0.016c-0.344-0.192-0.64-0.607-0.64-1.151c0-0.815,0.584-1.503,1.552-1.503
		c0.976,0,1.551,0.688,1.551,1.503c0,0.544-0.296,0.959-0.64,1.151v0.016c0.432,0.232,0.768,0.704,0.768,1.344
		c0,0.951-0.688,1.599-1.679,1.599s-1.68-0.647-1.68-1.599C491.6,144.885,491.936,144.414,492.368,144.181z M493.28,146.501
		c0.6,0,0.991-0.424,0.991-1.008c0-0.575-0.392-0.999-0.991-0.999s-0.991,0.424-0.991,0.999
		C492.289,146.077,492.688,146.501,493.28,146.501z M494.143,142.999c0-0.48-0.344-0.864-0.863-0.864s-0.863,0.384-0.863,0.864
		c0,0.479,0.335,0.871,0.863,0.871C493.807,143.87,494.143,143.478,494.143,142.999z"/>
	<path d="M500.998,147.036c-0.048,0-0.08-0.031-0.08-0.08v-2.238c0-0.616-0.279-0.976-0.855-0.976c-0.512,0-0.879,0.368-0.879,0.936
		v2.278c0,0.049-0.032,0.08-0.08,0.08h-0.512c-0.048,0-0.08-0.031-0.08-0.08v-2.238c0-0.616-0.28-0.976-0.855-0.976
		c-0.52,0-0.88,0.368-0.88,0.936v2.278c0,0.049-0.032,0.08-0.08,0.08h-0.512c-0.048,0-0.08-0.031-0.08-0.08v-3.67
		c0-0.048,0.032-0.08,0.08-0.08h0.512c0.048,0,0.08,0.032,0.08,0.08v0.353h0.008c0.185-0.296,0.552-0.521,1.071-0.521
		c0.521,0,0.904,0.216,1.12,0.6h0.008c0.264-0.367,0.655-0.6,1.239-0.6c0.888,0,1.367,0.568,1.367,1.439v2.398
		c0,0.049-0.032,0.08-0.08,0.08H500.998z"/>
	<path d="M507.758,147.036c-0.048,0-0.08-0.031-0.08-0.08v-2.238c0-0.616-0.279-0.976-0.855-0.976c-0.512,0-0.879,0.368-0.879,0.936
		v2.278c0,0.049-0.032,0.08-0.08,0.08h-0.512c-0.048,0-0.08-0.031-0.08-0.08v-2.238c0-0.616-0.28-0.976-0.855-0.976
		c-0.52,0-0.88,0.368-0.88,0.936v2.278c0,0.049-0.032,0.08-0.08,0.08h-0.512c-0.048,0-0.08-0.031-0.08-0.08v-3.67
		c0-0.048,0.032-0.08,0.08-0.08h0.512c0.048,0,0.08,0.032,0.08,0.08v0.353h0.008c0.185-0.296,0.552-0.521,1.071-0.521
		c0.521,0,0.904,0.216,1.12,0.6h0.008c0.264-0.367,0.655-0.6,1.239-0.6c0.888,0,1.367,0.568,1.367,1.439v2.398
		c0,0.049-0.032,0.08-0.08,0.08H507.758z"/>
</g>
<path d="M526.516,50.638h-30.253v1.001h29.753v4.074c-1.769,0.088-3.099,0.654-3.96,1.685c-0.962,1.153-1.066,2.577-1.036,3.364
	h-24.757v1h25.306c0.148,0,0.288-0.065,0.382-0.179c0.094-0.114,0.134-0.263,0.109-0.409c-0.002-0.019-0.311-1.855,0.769-3.142
	c0.742-0.884,1.982-1.332,3.687-1.332c0.276,0,0.5-0.224,0.5-0.5v-5.062C527.016,50.862,526.792,50.638,526.516,50.638z"/>
<path d="M526.516,80.32h-30.253v1.001h29.753v4.074c-1.769,0.088-3.099,0.654-3.96,1.685c-0.962,1.153-1.066,2.577-1.036,3.364
	h-24.757v1h25.306c0.148,0,0.288-0.065,0.382-0.179c0.094-0.114,0.134-0.263,0.109-0.409c-0.002-0.019-0.311-1.855,0.769-3.142
	c0.742-0.884,1.982-1.332,3.687-1.332c0.276,0,0.5-0.224,0.5-0.5V80.82C527.016,80.544,526.792,80.32,526.516,80.32z"/>
<path d="M526.516,109.541h-30.253v1.001h29.753v4.074c-1.769,0.088-3.099,0.654-3.96,1.685c-0.962,1.153-1.066,2.577-1.036,3.364
	h-24.757v1h25.306c0.148,0,0.288-0.065,0.382-0.179c0.094-0.114,0.134-0.263,0.109-0.409c-0.002-0.019-0.311-1.855,0.769-3.142
	c0.742-0.884,1.982-1.332,3.687-1.332c0.276,0,0.5-0.224,0.5-0.5v-5.062C527.016,109.765,526.792,109.541,526.516,109.541z"/>
<path d="M526.516,139.336h-30.253v1.001h29.753v4.074c-1.769,0.088-3.099,0.654-3.96,1.685c-0.962,1.153-1.066,2.577-1.036,3.364
	h-24.757v1h25.306c0.148,0,0.288-0.065,0.382-0.179c0.094-0.114,0.134-0.263,0.109-0.409c-0.002-0.019-0.311-1.855,0.769-3.142
	c0.742-0.884,1.982-1.332,3.687-1.332c0.276,0,0.5-0.224,0.5-0.5v-5.062C527.016,139.56,526.792,139.336,526.516,139.336z"/>
<rect x="239.009" y="68.029" width="50.94" height="0.793"/>
<g>
	
		<line id="line429_6_" fill="none" stroke="#42AB37" stroke-width="0.5" stroke-miterlimit="10" x1="348.743" y1="123.88" x2="344.157" y2="123.88"/>
	
		<line id="line431_6_" fill="none" stroke="#42AB37" stroke-width="0.5" stroke-miterlimit="10" x1="353.154" y1="126.714" x2="344.157" y2="126.714"/>
	
		<line id="line433_6_" fill="none" stroke="#42AB37" stroke-width="0.5" stroke-miterlimit="10" x1="348.743" y1="129.549" x2="344.157" y2="129.549"/>
	
		<line id="line435_6_" fill="none" stroke="#42AB37" stroke-width="0.5" stroke-miterlimit="10" x1="348.743" y1="132.384" x2="344.157" y2="132.384"/>
	
		<line id="line437_6_" fill="none" stroke="#42AB37" stroke-width="0.5" stroke-miterlimit="10" x1="348.743" y1="135.218" x2="344.157" y2="135.218"/>
	
		<line id="line439_6_" fill="none" stroke="#42AB37" stroke-width="0.5" stroke-miterlimit="10" x1="348.743" y1="138.053" x2="344.157" y2="138.053"/>
	
		<line id="line441_6_" fill="none" stroke="#42AB37" stroke-width="0.5" stroke-miterlimit="10" x1="353.154" y1="140.888" x2="344.157" y2="140.888"/>
	
		<line id="line443_6_" fill="none" stroke="#42AB37" stroke-width="0.5" stroke-miterlimit="10" x1="348.743" y1="152.226" x2="344.157" y2="152.226"/>
	
		<line id="line445_6_" fill="none" stroke="#42AB37" stroke-width="0.5" stroke-miterlimit="10" x1="348.743" y1="143.722" x2="344.157" y2="143.722"/>
	
		<line id="line447_6_" fill="none" stroke="#42AB37" stroke-width="0.5" stroke-miterlimit="10" x1="348.743" y1="146.557" x2="344.157" y2="146.557"/>
	
		<line id="line449_6_" fill="none" stroke="#42AB37" stroke-width="0.5" stroke-miterlimit="10" x1="348.743" y1="149.392" x2="344.157" y2="149.392"/>
	
		<line id="line451_6_" fill="none" stroke="#42AB37" stroke-width="0.5" stroke-miterlimit="10" x1="348.743" y1="95.533" x2="344.157" y2="95.533"/>
	
		<line id="line453_6_" fill="none" stroke="#42AB37" stroke-width="0.5" stroke-miterlimit="10" x1="353.154" y1="98.368" x2="344.157" y2="98.368"/>
	
		<line id="line455_6_" fill="none" stroke="#42AB37" stroke-width="0.5" stroke-miterlimit="10" x1="348.743" y1="101.203" x2="344.157" y2="101.203"/>
	
		<line id="line457_6_" fill="none" stroke="#42AB37" stroke-width="0.5" stroke-miterlimit="10" x1="348.743" y1="104.037" x2="344.157" y2="104.037"/>
	
		<line id="line459_6_" fill="none" stroke="#42AB37" stroke-width="0.5" stroke-miterlimit="10" x1="348.743" y1="106.872" x2="344.157" y2="106.872"/>
	
		<line id="line461_6_" fill="none" stroke="#42AB37" stroke-width="0.5" stroke-miterlimit="10" x1="348.743" y1="109.707" x2="344.157" y2="109.707"/>
	
		<line id="line463_6_" fill="none" stroke="#42AB37" stroke-width="0.5" stroke-miterlimit="10" x1="353.154" y1="112.541" x2="344.157" y2="112.541"/>
	
		<line id="line465_6_" fill="none" stroke="#42AB37" stroke-width="0.5" stroke-miterlimit="10" x1="348.743" y1="115.376" x2="344.157" y2="115.376"/>
	
		<line id="line467_6_" fill="none" stroke="#42AB37" stroke-width="0.5" stroke-miterlimit="10" x1="348.743" y1="118.21" x2="344.157" y2="118.21"/>
	
		<line id="line469_6_" fill="none" stroke="#42AB37" stroke-width="0.5" stroke-miterlimit="10" x1="348.743" y1="121.045" x2="344.157" y2="121.045"/>
	
		<line id="line471_6_" fill="none" stroke="#42AB37" stroke-width="0.5" stroke-miterlimit="10" x1="348.743" y1="67.187" x2="344.157" y2="67.187"/>
	
		<line id="line473_6_" fill="none" stroke="#42AB37" stroke-width="0.5" stroke-miterlimit="10" x1="353.154" y1="70.021" x2="344.157" y2="70.021"/>
	
		<line id="line475_6_" fill="none" stroke="#42AB37" stroke-width="0.5" stroke-miterlimit="10" x1="348.743" y1="72.856" x2="344.157" y2="72.856"/>
	
		<line id="line477_6_" fill="none" stroke="#42AB37" stroke-width="0.5" stroke-miterlimit="10" x1="348.743" y1="75.691" x2="344.157" y2="75.691"/>
	
		<line id="line479_6_" fill="none" stroke="#42AB37" stroke-width="0.5" stroke-miterlimit="10" x1="348.743" y1="78.525" x2="344.157" y2="78.525"/>
	
		<line id="line481_6_" fill="none" stroke="#42AB37" stroke-width="0.5" stroke-miterlimit="10" x1="348.743" y1="81.36" x2="344.157" y2="81.36"/>
	
		<line id="line483_6_" fill="none" stroke="#42AB37" stroke-width="0.5" stroke-miterlimit="10" x1="353.154" y1="84.195" x2="344.157" y2="84.195"/>
	
		<line id="line485_6_" fill="none" stroke="#42AB37" stroke-width="0.5" stroke-miterlimit="10" x1="348.743" y1="87.029" x2="344.157" y2="87.029"/>
	
		<line id="line487_6_" fill="none" stroke="#42AB37" stroke-width="0.5" stroke-miterlimit="10" x1="348.743" y1="89.864" x2="344.157" y2="89.864"/>
	
		<line id="line489_6_" fill="none" stroke="#42AB37" stroke-width="0.5" stroke-miterlimit="10" x1="348.743" y1="92.699" x2="344.157" y2="92.699"/>
	
		<line id="line491_5_" fill="none" stroke="#42AB37" stroke-width="0.5" stroke-miterlimit="10" x1="348.743" y1="50.179" x2="344.157" y2="50.179"/>
	
		<line id="line493_5_" fill="none" stroke="#42AB37" stroke-width="0.5" stroke-miterlimit="10" x1="348.743" y1="53.014" x2="344.157" y2="53.014"/>
	
		<line id="line495_5_" fill="none" stroke="#42AB37" stroke-width="0.5" stroke-miterlimit="10" x1="353.154" y1="55.848" x2="344.157" y2="55.848"/>
	
		<line id="line497_5_" fill="none" stroke="#42AB37" stroke-width="0.5" stroke-miterlimit="10" x1="348.743" y1="58.683" x2="344.157" y2="58.683"/>
	
		<line id="line499_5_" fill="none" stroke="#42AB37" stroke-width="0.5" stroke-miterlimit="10" x1="348.743" y1="61.518" x2="344.157" y2="61.518"/>
	
		<line id="line501_5_" fill="none" stroke="#42AB37" stroke-width="0.5" stroke-miterlimit="10" x1="348.743" y1="64.352" x2="344.157" y2="64.352"/>
</g>
</svg>
