<?xml version="1.0" encoding="UTF-8" standalone="no"?>
<svg
   xmlns:dc="http://purl.org/dc/elements/1.1/"
   xmlns:cc="http://creativecommons.org/ns#"
   xmlns:rdf="http://www.w3.org/1999/02/22-rdf-syntax-ns#"
   xmlns:svg="http://www.w3.org/2000/svg"
   xmlns="http://www.w3.org/2000/svg"
   xml:space="preserve"
   enable-background="new 0 0 563.559 125.424"
   viewBox="0 0 512.58696 69.72257"
   height="69.722572"
   width="512.58698"
   y="0px"
   x="0px"
   id="Ebene_1"
   version="1.1"><metadata
     id="metadata18"><rdf:RDF><cc:Work
         rdf:about=""><dc:format>image/svg+xml</dc:format><dc:type
           rdf:resource="http://purl.org/dc/dcmitype/StillImage" /><dc:title></dc:title></cc:Work></rdf:RDF></metadata><defs
     id="defs16" /><path
     style="fill:#000000"
     d="m 41.237,44.349574 c 0.338,1.944 5.259,2.831 7.35,4.478 2.352,1.849 4.902,3.296 8.449,4.14 -0.638,-0.724 -0.49,-1.226 -0.423,-1.605 6.337,1.353 9.038,-1.605 8.618,-1.69 -0.791,0.249 -1.1,0.106 -1.352,0 1.099,-0.845 1.943,-4.225 1.604,-7.772 -1.519,3.463 -4.056,3.886 -5.999,3.209 -1.943,-0.675 -5.236,-7.18 -6.842,-8.785 0.745,-0.078 1.645,0.114 2.113,0.338 -0.761,-1.353 -3.043,-1.776 -6.589,-1.267 0.42,-0.591 1.181,-1.352 3.039,-1.859 -6.42,-0.339 -9.038,4.646 -10.559,7.688 h -0.178 c -1.522,-3.041 -4.14,-8.026 -10.561,-7.688 1.858,0.507 2.619,1.268 3.041,1.859 -3.549,-0.509 -5.832,-0.086 -6.589,1.267 0.466,-0.224 1.368,-0.416 2.111,-0.338 -1.605,1.605 -4.899,8.109 -6.842,8.785 -1.943,0.677 -4.479,0.255 -5.999,-3.209 -0.338,3.548 0.507,6.927 1.605,7.772 -0.252,0.106 -0.562,0.249 -1.353,0 -0.423,0.084 2.282,3.043 8.618,1.69 0.07,0.38 0.217,0.881 -0.422,1.605 3.548,-0.844 6.098,-2.291 8.448,-4.14 2.091,-1.647 6.915,-2.479 7.35,-4.478 0.482,-0.527 0.955,-0.453 1.362,0 z"
     id="path3572_11_" /><path
     style="fill:#000000"
     id="path3"
     d="m 80.528,1.9295743 v 0 c -5.004,0 -32.518,0 -33.354,0 -0.921,0 -2.331,0.704 -2.77,1.234 -0.441,0.53 -1.568,2.048 -1.568,2.048 h -4.363 c 0,0 -1.131,-1.518 -1.57,-2.048 -0.438,-0.531 -1.847,-1.234 -2.768,-1.234 -0.843,0 -28.639,0 -33.433,0 -0.453,0 -0.702,0.346 -0.702,0.694 0,0.349 0,2.688 0,2.908 0,0.222 0.125,0.649 0.313,0.747 0.516,0.268 1.506,0.784 1.701,0.887 0.265,0.138 0.749,0.908 0.85,1.307 0.1,0.399 3.886,15.3879997 4.094,16.2119997 0.244,0.969 1.101,1.753 2.195,1.753 5.04,0 19.285,0 20.317,0 1.257,0 2.653,-0.766 3.28,-1.897 0.628,-1.134 6.838,-12.346 6.838,-12.346 h 2.13 c 0,0 6.21,11.213 6.838,12.346 0.628,1.132 2.023,1.897 3.28,1.897 1.033,0 15.278,0 20.32,0 1.092,0 1.95,-0.784 2.194,-1.753 0.207,-0.814 3.131,-12.4 4.063,-16.0879997 0.176,-0.703 0.708,-1.341 1.168,-1.58 0.286,-0.148 0.882,-0.459 1.295,-0.675 0.252,-0.131 0.435,-0.406 0.435,-0.774 0,-0.368 0,-2.728 0,-3.01 -0.003,-0.282 -0.28,-0.628 -0.783,-0.628 z m -46.243,5.493 v 0 L 31.221,20.724574 c -0.365,1.584 -1.992,2.879 -3.617,2.879 H 12.559 c -1.625,0 -3.167,-1.313 -3.428,-2.916 L 6.985,7.4625743 c -0.261,-1.604 0.857,-2.916 2.482,-2.916 h 22.53 c 1.621,-0.002 2.652,1.292 2.288,2.876 z m 40.619,0.038 -2.146,13.2249997 c -0.261,1.604 -1.803,2.916 -3.427,2.916 H 54.284 c -1.625,0 -3.252,-1.295 -3.617,-2.879 L 47.601,7.4205743 c -0.364,-1.584 0.667,-2.879 2.292,-2.879 h 22.531 c 1.623,0.002 2.738,1.315 2.48,2.919 z" /><path
     style="fill:#000000"
     id="path5"
     d="m 155.181,53.049574 c -0.774,0 -1.542,-0.125 -2.278,-0.417 -1.166,-0.462 -2.702,-1.54 -3.393,-4.055 -1.733,-6.293 -0.43,-15.615 0.93,-22.894 -7.063,10.493 -17.632,24.894 -18.203,25.673 -0.661,0.899 -1.866,1.211 -2.879,0.742 -1.014,-0.469 -1.559,-1.587 -1.302,-2.674 4.018,-17.021 7.635,-35.914 7.86,-43.0139997 -6.864,7.7469997 -25.295,37.1549997 -27.778,44.9379997 -0.395,1.236 -1.717,1.916 -2.953,1.525 -1.236,-0.395 -1.919,-1.717 -1.524,-2.953 1.598,-5.009 9.279,-18.16 15.739,-28.261 14.469,-22.62099975 16.848,-21.98399975 18.584,-21.51699975 2.764,0.738 4.234,3.00800005 -0.337,26.88199975 -0.824,4.303 -1.718,8.607 -2.521,12.334 5.63,-7.846 13.228,-18.633 16.173,-23.741 0.675,-1.16 1.921,-3.305 4.051,-2.497 2.227,0.847 1.86,2.661 0.644,8.672 -1.423,7.036 -3.805,18.811 -1.953,25.536 0.215,0.783 0.5,0.896 0.594,0.933 0.642,0.255 2.313,-0.063 4.457,-1.371 4.215,-2.57 10.124,-12.442 12.045,-16.029 0.337,-0.629 0.942,-1.071 1.644,-1.201 0.702,-0.13 1.425,0.065 1.965,0.532 1.794,1.551 6.297,1.197 8.197,0.784 0.845,-0.182 1.722,0.11 2.284,0.767 0.562,0.656 0.719,1.568 0.408,2.375 -3.568,9.249 -2.764,11.981 -2.252,12.727 0.118,0.173 0.478,0.697 2.144,0.697 h 28.427 c 1.298,0 2.35,1.052 2.35,2.35 0,1.298 -1.052,2.35 -2.35,2.35 h -28.427 c -2.748,0 -4.773,-0.921 -6.02,-2.737 -1.831,-2.668 -1.707,-6.896 0.451,-13.475 -1.801,0.044 -3.944,-0.111 -5.849,-0.849 -2.371,4.123 -7.739,12.777 -12.57,15.724 -1.745,1.063 -4.078,2.144 -6.358,2.144 z" /><g
     style="fill:#000000"
     transform="translate(-28.192,-35.477426)"
     id="g11"><path
       style="fill:#000000"
       id="path7"
       d="m 353.806,83.025 h -11.934 c -4.106,0 -7.861,-0.872 -10.189,-2.276 6.508,-3.188 11.915,-6.913 14.619,-10.259 2.239,-2.77 1.642,-4.854 1.086,-5.849 -1.132,-2.029 -3.82,-2.933 -7.381,-2.478 -6.015,0.768 -13.028,5.172 -15.142,13.279 -0.297,1.136 -0.351,2.25 -0.167,3.315 -3.812,1.51 -7.777,2.759 -11.51,3.633 5.021,-4.036 5.781,-6.431 5.074,-8.506 -0.971,-2.852 -4.496,-3.617 -10.562,-3.38 4.454,-4.765 11.26,-12.173 14.152,-15.988 4.226,-5.576 6.608,-9.913 4.498,-12.958 -1.759,-2.539 -5.518,-2.723 -12.568,-0.621 -12.65,3.774 -22.693,11.645 -30.116,19.567 1.399,-3.147 2.782,-6.342 4.132,-9.578 0.5,-1.198 -0.065,-2.574 -1.263,-3.074 -1.197,-0.499 -2.574,0.066 -3.074,1.263 -4.91,11.762 -10.259,23.008 -15.32,33.422 -0.099,0.2 -0.165,0.336 -0.195,0.401 -0.553,1.169 -0.059,2.565 1.107,3.125 1.164,0.559 2.564,0.072 3.13,-1.092 0.021,-0.042 0.041,-0.083 0.061,-0.125 0.982,-1.994 15.862,-31.345 42.881,-39.407 4.938,-1.474 6.75,-1.291 7.289,-1.15 -0.054,0.615 -0.604,2.499 -4.309,7.385 -4.221,5.567 -17.826,19.846 -17.963,19.99 -0.677,0.711 -0.842,1.768 -0.413,2.65 0.43,0.882 1.36,1.415 2.34,1.311 7.46,-0.723 10.351,-0.464 11.46,-0.115 -0.638,0.977 -2.922,3.494 -11.083,8.609 -0.896,0.562 -1.308,1.654 -1.002,2.668 0.299,0.995 1.215,1.673 2.249,1.673 0.02,0 0.039,0 0.059,0 7.199,-0.178 15.596,-2.42 23.137,-5.552 2.917,2.989 8.524,4.812 14.982,4.812 h 11.934 c 1.298,0 2.35,-1.052 2.35,-2.35 0,-1.298 -1.052,-2.345 -2.349,-2.345 z m -24.393,-6.396 c 1.673,-6.419 7.229,-8.718 8.891,-9.269 1.392,-0.462 2.542,-0.608 3.397,-0.608 0.617,0 1.08,0.076 1.371,0.166 -0.082,0.15 -0.213,0.355 -0.425,0.617 -2.667,3.298 -7.579,6.509 -13.26,9.192 0.008,-0.032 0.017,-0.065 0.026,-0.098 z" /><path
       style="fill:#000000"
       id="path9"
       d="m 538.428,83.176 h -9.371 l 6.138,-3.483 c 0.721,-0.409 0.974,-1.324 0.564,-2.045 -0.41,-0.723 -1.327,-0.974 -2.045,-0.564 l -6.411,3.638 6.452,-10.985 c 0.657,-1.119 0.283,-2.56 -0.836,-3.217 -1.12,-0.657 -2.56,-0.283 -3.217,0.836 l -6.449,10.981 0.055,-7.367 c 0.006,-0.828 -0.66,-1.505 -1.489,-1.511 -0.813,-0.046 -1.505,0.66 -1.511,1.489 l -0.055,7.365 -6.284,-11.073 c -0.641,-1.13 -2.077,-1.525 -3.204,-0.884 -1.129,0.641 -1.524,2.075 -0.884,3.204 l 6.286,11.077 -6.354,-3.732 c -0.713,-0.419 -1.633,-0.182 -2.053,0.533 -0.42,0.715 -0.181,1.634 0.533,2.053 l 6.274,3.685 h -43.139 c -1.973,-0.026 -7.976,-0.106 -10.827,-14.671 -0.177,-0.898 -0.858,-1.613 -1.747,-1.831 -0.891,-0.22 -1.824,0.1 -2.396,0.815 -11.919,14.913 -16.86,15.287 -18.437,14.757 -1.707,-0.578 -3.791,-3.51 -4.027,-14.2 -0.02,-0.888 -0.03,-1.295 -0.078,-1.631 -0.134,-0.919 -0.75,-1.688 -1.61,-2.009 -1.941,-0.721 -3.4,0.396 -12.7,8.456 -2.802,2.428 -6.887,5.969 -9.736,8.146 0.365,-1.01 0.857,-2.196 1.457,-3.644 1.074,-2.592 2.546,-6.141 4.233,-11.003 0.356,-1.025 -0.036,-2.161 -0.949,-2.747 -0.913,-0.588 -2.11,-0.472 -2.894,0.277 -22.142,21.154 -26.35,20.513 -26.966,20.168 -0.011,-0.006 -1.073,-1.011 0.166,-6.977 0.24,-1.156 -0.415,-2.312 -1.531,-2.698 -1.117,-0.388 -2.346,0.114 -2.873,1.173 -2.693,5.405 -10.512,8.052 -16.778,7.869 -0.612,-0.019 -1.049,-0.075 -1.352,-0.137 1.409,-1.92 7.428,-6.27 18.371,-9.271 0.981,-0.27 1.678,-1.139 1.727,-2.155 0.143,-2.992 -1.23,-4.636 -2.406,-5.487 -3.692,-2.674 -9.988,-0.882 -13.413,0.426 -1.212,0.463 -1.819,1.821 -1.356,3.034 0.463,1.213 1.821,1.819 3.034,1.356 4.612,-1.762 7.782,-1.798 8.923,-1.049 -10.445,3.242 -20.462,8.992 -19.851,14.09 0.167,1.391 1.192,3.745 6.188,3.89 5.188,0.153 11.487,-1.314 16.116,-4.694 0.248,2.023 1.024,3.779 2.757,4.74 0.74,0.411 1.583,0.656 2.599,0.656 3.821,0 10.079,-3.478 22.488,-14.65 -0.198,0.483 -0.39,0.944 -0.574,1.389 -1.728,4.166 -2.771,6.682 -2.518,9.494 0.098,1.068 0.728,1.937 1.688,2.323 2.273,0.919 4.589,-0.62 16.529,-10.969 2.127,-1.844 4.74,-4.108 6.691,-5.687 0.252,5.492 1.31,13.998 7.141,15.971 5.14,1.739 11.733,-2.29 20.605,-12.636 2.713,9.081 7.495,13.723 14.275,13.812 h 43.302 l -6.494,3.686 c -0.721,0.409 -0.974,1.324 -0.564,2.045 0.276,0.487 0.784,0.76 1.306,0.76 0.251,0 0.506,-0.062 0.739,-0.195 l 6.403,-3.634 -6.447,10.978 c -0.657,1.119 -0.283,2.56 0.836,3.217 0.374,0.22 0.784,0.324 1.188,0.324 0.806,0 1.591,-0.415 2.028,-1.16 l 6.451,-10.984 -0.055,7.37 c -0.006,0.828 0.66,1.505 1.489,1.511 0.004,0 0.007,0 0.011,0 0.823,0 1.494,-0.664 1.5,-1.489 l 0.055,-7.369 6.287,11.078 c 0.433,0.763 1.228,1.19 2.046,1.19 0.394,0 0.792,-0.099 1.158,-0.307 1.129,-0.641 1.524,-2.075 0.884,-3.204 l -6.285,-11.075 6.351,3.73 c 0.239,0.141 0.5,0.207 0.759,0.207 0.514,0 1.015,-0.265 1.294,-0.74 0.42,-0.715 0.181,-1.634 -0.533,-2.053 l -6.613,-3.884 h 9.936 c 1.298,0 2.35,-1.052 2.35,-2.35 0,-1.298 -1.053,-2.348 -2.351,-2.348 z" /></g></svg>